<svg version="1.1" viewBox="0.0 0.0 96.0 96.0" fill="none" stroke="none" stroke-linecap="square" stroke-miterlimit="10" xmlns:xlink="http://www.w3.org/1999/xlink" xmlns="http://www.w3.org/2000/svg"><clipPath id="p.0"><path d="m0 0l96.0 0l0 96.0l-96.0 0l0 -96.0z" clip-rule="nonzero"/></clipPath><g clip-path="url(#p.0)"><path fill="#000000" fill-opacity="0.0" d="m0 0l96.0 0l0 96.0l-96.0 0z" fill-rule="evenodd"/><path fill="#e69138" d="m0 0l96.0 0l0 96.0l-96.0 0z" fill-rule="evenodd"/><path fill="#b45f06" d="m33.72619 39.413223l0 0c0 -3.1658516 2.5664291 -5.7322845 5.7322807 -5.7322845l0 0c1.520298 0 2.978325 0.60393524 4.053337 1.6789474c1.0750122 1.0750122 1.6789474 2.533043 1.6789474 4.053337l0 0c0 3.1658516 -2.5664291 5.7322845 -5.7322845 5.7322845l0 0c-3.1658516 0 -5.7322807 -2.566433 -5.7322807 -5.7322845z" fill-rule="evenodd"/><path stroke="#783f04" stroke-width="2.0" stroke-linejoin="round" stroke-linecap="butt" d="m33.72619 39.413223l0 0c0 -3.1658516 2.5664291 -5.7322845 5.7322807 -5.7322845l0 0c1.520298 0 2.978325 0.60393524 4.053337 1.6789474c1.0750122 1.0750122 1.6789474 2.533043 1.6789474 4.053337l0 0c0 3.1658516 -2.5664291 5.7322845 -5.7322845 5.7322845l0 0c-3.1658516 0 -5.7322807 -2.566433 -5.7322807 -5.7322845z" fill-rule="evenodd"/><path fill="#783f04" d="m35.99161 39.42679l0 0c0 -1.922123 1.5581894 -3.4803123 3.4803123 -3.4803123l0 0c0.9230385 0 1.8082695 0.36667252 2.4609566 1.0193596c0.65268326 0.65268326 1.0193596 1.5379181 1.0193596 2.4609528l0 0c0 1.9221268 -1.5581894 3.4803162 -3.4803162 3.4803162l0 0c-1.922123 0 -3.4803123 -1.5581894 -3.4803123 -3.4803162z" fill-rule="evenodd"/><path fill="#b45f06" d="m33.72619 56.587555l0 0c0 -3.1658516 2.5664291 -5.7322807 5.7322807 -5.7322807l0 0c1.520298 0 2.978325 0.60393524 4.053337 1.6789474c1.0750122 1.0750084 1.6789474 2.533039 1.6789474 4.0533333l0 0c0 3.1658554 -2.5664291 5.7322845 -5.7322845 5.7322845l0 0c-3.1658516 0 -5.7322807 -2.5664291 -5.7322807 -5.7322845z" fill-rule="evenodd"/><path stroke="#783f04" stroke-width="2.0" stroke-linejoin="round" stroke-linecap="butt" d="m33.72619 56.587555l0 0c0 -3.1658516 2.5664291 -5.7322807 5.7322807 -5.7322807l0 0c1.520298 0 2.978325 0.60393524 4.053337 1.6789474c1.0750122 1.0750084 1.6789474 2.533039 1.6789474 4.0533333l0 0c0 3.1658554 -2.5664291 5.7322845 -5.7322845 5.7322845l0 0c-3.1658516 0 -5.7322807 -2.5664291 -5.7322807 -5.7322845z" fill-rule="evenodd"/><path fill="#783f04" d="m35.99161 56.60167l0 0c0 -1.922123 1.5581894 -3.4803162 3.4803123 -3.4803162l0 0c0.9230385 0 1.8082695 0.36667633 2.4609566 1.0193634c0.65268326 0.65268326 1.0193596 1.5379143 1.0193596 2.4609528l0 0c0 1.9221268 -1.5581894 3.4803162 -3.4803162 3.4803162l0 0c-1.922123 0 -3.4803123 -1.5581894 -3.4803123 -3.4803162z" fill-rule="evenodd"/><path fill="#b45f06" d="m50.81329 56.58911l0 0c0 -3.1658516 2.5664291 -5.7322807 5.7322845 -5.7322807l0 0c1.5202942 0 2.978325 0.60393524 4.053337 1.6789474c1.0750084 1.0750084 1.6789436 2.533039 1.6789436 4.0533333l0 0c0 3.1658554 -2.5664291 5.7322845 -5.7322807 5.7322845l0 0c-3.1658554 0 -5.7322845 -2.5664291 -5.7322845 -5.7322845z" fill-rule="evenodd"/><path stroke="#783f04" stroke-width="2.0" stroke-linejoin="round" stroke-linecap="butt" d="m50.81329 56.58911l0 0c0 -3.1658516 2.5664291 -5.7322807 5.7322845 -5.7322807l0 0c1.5202942 0 2.978325 0.60393524 4.053337 1.6789474c1.0750084 1.0750084 1.6789436 2.533039 1.6789436 4.0533333l0 0c0 3.1658554 -2.5664291 5.7322845 -5.7322807 5.7322845l0 0c-3.1658554 0 -5.7322845 -2.5664291 -5.7322845 -5.7322845z" fill-rule="evenodd"/><path fill="#783f04" d="m53.079197 56.603226l0 0c0 -1.922123 1.5581932 -3.4803162 3.4803162 -3.4803162l0 0c0.9230385 0 1.8082695 0.36667633 2.4609566 1.0193634c0.65268326 0.65268326 1.0193596 1.5379181 1.0193596 2.4609528l0 0c0 1.9221268 -1.5581894 3.4803162 -3.4803162 3.4803162l0 0c-1.922123 0 -3.4803162 -1.5581894 -3.4803162 -3.4803162z" fill-rule="evenodd"/><path fill="#b45f06" d="m50.80987 39.413223l0 0c0 -3.1658516 2.5664291 -5.7322845 5.7322807 -5.7322845l0 0c1.520298 0 2.978325 0.60393524 4.053337 1.6789474c1.0750122 1.0750122 1.6789474 2.533043 1.6789474 4.053337l0 0c0 3.1658516 -2.5664291 5.7322845 -5.7322845 5.7322845l0 0c-3.1658516 0 -5.7322807 -2.566433 -5.7322807 -5.7322845z" fill-rule="evenodd"/><path stroke="#783f04" stroke-width="2.0" stroke-linejoin="round" stroke-linecap="butt" d="m50.80987 39.413223l0 0c0 -3.1658516 2.5664291 -5.7322845 5.7322807 -5.7322845l0 0c1.520298 0 2.978325 0.60393524 4.053337 1.6789474c1.0750122 1.0750122 1.6789474 2.533043 1.6789474 4.053337l0 0c0 3.1658516 -2.5664291 5.7322845 -5.7322845 5.7322845l0 0c-3.1658516 0 -5.7322807 -2.566433 -5.7322807 -5.7322845z" fill-rule="evenodd"/><path fill="#783f04" d="m53.07578 39.42679l0 0c0 -1.922123 1.5581894 -3.4803123 3.4803162 -3.4803123l0 0c0.92303467 0 1.8082695 0.36667252 2.4609528 1.0193596c0.6526871 0.65268326 1.0193634 1.5379181 1.0193634 2.4609528l0 0c0 1.9221268 -1.5581932 3.4803162 -3.4803162 3.4803162l0 0c-1.9221268 0 -3.4803162 -1.5581894 -3.4803162 -3.4803162z" fill-rule="evenodd"/><path fill="#b45f06" d="m42.267784 48.000114l0 0c0 -3.1658516 2.566433 -5.7322807 5.7322845 -5.7322807l0 0c1.520298 0 2.978325 0.60393524 4.053337 1.6789474c1.0750122 1.0750084 1.6789474 2.533039 1.6789474 4.0533333l0 0c0 3.1658554 -2.566433 5.7322845 -5.7322845 5.7322845l0 0c-3.1658516 0 -5.7322845 -2.5664291 -5.7322845 -5.7322845z" fill-rule="evenodd"/><path stroke="#783f04" stroke-width="2.0" stroke-linejoin="round" stroke-linecap="butt" d="m42.267784 48.000114l0 0c0 -3.1658516 2.566433 -5.7322807 5.7322845 -5.7322807l0 0c1.520298 0 2.978325 0.60393524 4.053337 1.6789474c1.0750122 1.0750084 1.6789474 2.533039 1.6789474 4.0533333l0 0c0 3.1658554 -2.566433 5.7322845 -5.7322845 5.7322845l0 0c-3.1658516 0 -5.7322845 -2.5664291 -5.7322845 -5.7322845z" fill-rule="evenodd"/><path fill="#783f04" d="m44.533695 48.01423l0 0c0 -1.922123 1.5581894 -3.4803162 3.4803162 -3.4803162l0 0c0.92303467 0 1.8082657 0.36667633 2.4609528 1.0193634c0.6526871 0.65268326 1.0193596 1.5379181 1.0193596 2.4609528l0 0c0 1.9221268 -1.5581894 3.4803162 -3.4803123 3.4803162l0 0c-1.9221268 0 -3.4803162 -1.5581894 -3.4803162 -3.4803162z" fill-rule="evenodd"/><path fill="#ffff00" fill-opacity="0.7233" d="m12.994751 48.0l0 0c0 -19.334314 15.673559 -35.007874 35.007874 -35.007874l0 0c9.284664 0 18.189056 3.6883192 24.754303 10.25357c6.565254 6.5652504 10.253571 15.469641 10.253571 24.754305l0 0c0 19.334312 -15.673561 35.007874 -35.007874 35.007874l0 0c-19.334314 0 -35.007874 -15.673561 -35.007874 -35.007874z" fill-rule="evenodd"/></g></svg>