<svg version="1.1" viewBox="0.0 0.0 96.0 96.0" fill="none" stroke="none" stroke-linecap="square" stroke-miterlimit="10" xmlns:xlink="http://www.w3.org/1999/xlink" xmlns="http://www.w3.org/2000/svg"><clipPath id="dieFull.0"><path d="m0 0l96.0 0l0 96.0l-96.0 0l0 -96.0z" clip-rule="nonzero"/></clipPath><g clip-path="url(#dieFull.0)"><path fill="#000000" fill-opacity="0.0" d="m0 0l96.0 0l0 96.0l-96.0 0z" fill-rule="evenodd"/><path fill="#f6b26b" d="m0 0l96.0 0l0 96.0l-96.0 0z" fill-rule="evenodd"/><path fill="#783f04" d="m8.28084 20.674541l0 0c0 -6.766576 5.4853935 -12.251969 12.251968 -12.251969l0 0c3.249424 0 6.365761 1.2908287 8.66345 3.5885181c2.2976894 2.2976904 3.58852 5.414027 3.58852 8.663451l0 0c0 6.766575 -5.4853954 12.251968 -12.25197 12.251968l0 0c-6.766575 0 -12.251968 -5.4853935 -12.251968 -12.251968z" fill-rule="evenodd"/><path stroke="#b45f06" stroke-width="4.0" stroke-linejoin="round" stroke-linecap="butt" d="m8.28084 20.674541l0 0c0 -6.766576 5.4853935 -12.251969 12.251968 -12.251969l0 0c3.249424 0 6.365761 1.2908287 8.66345 3.5885181c2.2976894 2.2976904 3.58852 5.414027 3.58852 8.663451l0 0c0 6.766575 -5.4853954 12.251968 -12.25197 12.251968l0 0c-6.766575 0 -12.251968 -5.4853935 -12.251968 -12.251968z" fill-rule="evenodd"/><path fill="#783f04" d="m63.214184 20.674541l0 0c0 -6.766576 5.4853935 -12.251969 12.251972 -12.251969l0 0c3.2494202 0 6.365761 1.2908287 8.6634445 3.5885181c2.2976913 2.2976904 3.5885239 5.414027 3.5885239 8.663451l0 0c0 6.766575 -5.4853973 12.251968 -12.251968 12.251968l0 0c-6.7665787 0 -12.251972 -5.4853935 -12.251972 -12.251968z" fill-rule="evenodd"/><path stroke="#b45f06" stroke-width="4.0" stroke-linejoin="round" stroke-linecap="butt" d="m63.214184 20.674541l0 0c0 -6.766576 5.4853935 -12.251969 12.251972 -12.251969l0 0c3.2494202 0 6.365761 1.2908287 8.6634445 3.5885181c2.2976913 2.2976904 3.5885239 5.414027 3.5885239 8.663451l0 0c0 6.766575 -5.4853973 12.251968 -12.251968 12.251968l0 0c-6.7665787 0 -12.251972 -5.4853935 -12.251972 -12.251968z" fill-rule="evenodd"/><path fill="#783f04" d="m8.28084 75.324295l0 0c0 -6.7665787 5.4853935 -12.251972 12.251968 -12.251972l0 0c3.249424 0 6.365761 1.2908287 8.66345 3.58852c2.2976894 2.2976913 3.58852 5.4140244 3.58852 8.663452l0 0c0 6.766571 -5.4853954 12.251968 -12.25197 12.251968l0 0c-6.766575 0 -12.251968 -5.4853973 -12.251968 -12.251968z" fill-rule="evenodd"/><path stroke="#b45f06" stroke-width="4.0" stroke-linejoin="round" stroke-linecap="butt" d="m8.28084 75.324295l0 0c0 -6.7665787 5.4853935 -12.251972 12.251968 -12.251972l0 0c3.249424 0 6.365761 1.2908287 8.66345 3.58852c2.2976894 2.2976913 3.58852 5.4140244 3.58852 8.663452l0 0c0 6.766571 -5.4853954 12.251968 -12.25197 12.251968l0 0c-6.766575 0 -12.251968 -5.4853973 -12.251968 -12.251968z" fill-rule="evenodd"/><path fill="#783f04" d="m63.214184 75.324295l0 0c0 -6.7665787 5.4853935 -12.251972 12.251972 -12.251972l0 0c3.2494202 0 6.365761 1.2908287 8.6634445 3.58852c2.2976913 2.2976913 3.5885239 5.4140244 3.5885239 8.663452l0 0c0 6.766571 -5.4853973 12.251968 -12.251968 12.251968l0 0c-6.7665787 0 -12.251972 -5.4853973 -12.251972 -12.251968z" fill-rule="evenodd"/><path stroke="#b45f06" stroke-width="4.0" stroke-linejoin="round" stroke-linecap="butt" d="m63.214184 75.324295l0 0c0 -6.7665787 5.4853935 -12.251972 12.251972 -12.251972l0 0c3.2494202 0 6.365761 1.2908287 8.6634445 3.58852c2.2976913 2.2976913 3.5885239 5.4140244 3.5885239 8.663452l0 0c0 6.766571 -5.4853973 12.251968 -12.251968 12.251968l0 0c-6.7665787 0 -12.251972 -5.4853973 -12.251972 -12.251968z" fill-rule="evenodd"/><path fill="#560000" d="m27.575218 48.000416l0 0c0 -11.280525 9.144672 -20.425198 20.425198 -20.425198l0 0c5.417099 0 10.612328 2.1519337 14.442795 5.982403c3.8304634 3.8304672 5.982403 9.025696 5.982403 14.442795l0 0c0 11.280525 -9.144672 20.425198 -20.425198 20.425198l0 0c-11.280525 0 -20.425198 -9.144672 -20.425198 -20.425198z" fill-rule="evenodd"/><path stroke="#000000" stroke-width="2.0" stroke-linejoin="round" stroke-linecap="butt" d="m27.575218 48.000416l0 0c0 -11.280525 9.144672 -20.425198 20.425198 -20.425198l0 0c5.417099 0 10.612328 2.1519337 14.442795 5.982403c3.8304634 3.8304672 5.982403 9.025696 5.982403 14.442795l0 0c0 11.280525 -9.144672 20.425198 -20.425198 20.425198l0 0c-11.280525 0 -20.425198 -9.144672 -20.425198 -20.425198z" fill-rule="evenodd"/></g></svg>