<svg version="1.1" viewBox="0.0 0.0 96.0 96.0" fill="none" stroke="none" stroke-linecap="square" stroke-miterlimit="10" xmlns:xlink="http://www.w3.org/1999/xlink" xmlns="http://www.w3.org/2000/svg"><clipPath id="fiveEyesHover.0"><path d="m0 0l96.0 0l0 96.0l-96.0 0l0 -96.0z" clip-rule="nonzero"/></clipPath><g clip-path="url(#fiveEyesHover.0)"><path fill="#000000" fill-opacity="0.0" d="m0 0l96.0 0l0 96.0l-96.0 0z" fill-rule="evenodd"/><path fill="#f6b26b" d="m0 0l96.0 0l0 96.0l-96.0 0z" fill-rule="evenodd"/><path fill="#b45f06" d="m8.28084 20.674541l0 0c0 -6.766576 5.4853935 -12.251969 12.251968 -12.251969l0 0c3.249424 0 6.365761 1.2908287 8.66345 3.5885181c2.2976894 2.2976904 3.58852 5.414027 3.58852 8.663451l0 0c0 6.766575 -5.4853954 12.251968 -12.25197 12.251968l0 0c-6.766575 0 -12.251968 -5.4853935 -12.251968 -12.251968z" fill-rule="evenodd"/><path stroke="#783f04" stroke-width="4.0" stroke-linejoin="round" stroke-linecap="butt" d="m8.28084 20.674541l0 0c0 -6.766576 5.4853935 -12.251969 12.251968 -12.251969l0 0c3.249424 0 6.365761 1.2908287 8.66345 3.5885181c2.2976894 2.2976904 3.58852 5.414027 3.58852 8.663451l0 0c0 6.766575 -5.4853954 12.251968 -12.25197 12.251968l0 0c-6.766575 0 -12.251968 -5.4853935 -12.251968 -12.251968z" fill-rule="evenodd"/><path fill="#b45f06" d="m63.214184 20.674541l0 0c0 -6.766576 5.4853935 -12.251969 12.251972 -12.251969l0 0c3.2494202 0 6.365761 1.2908287 8.6634445 3.5885181c2.2976913 2.2976904 3.5885239 5.414027 3.5885239 8.663451l0 0c0 6.766575 -5.4853973 12.251968 -12.251968 12.251968l0 0c-6.7665787 0 -12.251972 -5.4853935 -12.251972 -12.251968z" fill-rule="evenodd"/><path stroke="#783f04" stroke-width="4.0" stroke-linejoin="round" stroke-linecap="butt" d="m63.214184 20.674541l0 0c0 -6.766576 5.4853935 -12.251969 12.251972 -12.251969l0 0c3.2494202 0 6.365761 1.2908287 8.6634445 3.5885181c2.2976913 2.2976904 3.5885239 5.414027 3.5885239 8.663451l0 0c0 6.766575 -5.4853973 12.251968 -12.251968 12.251968l0 0c-6.7665787 0 -12.251972 -5.4853935 -12.251972 -12.251968z" fill-rule="evenodd"/><path fill="#b45f06" d="m8.28084 75.324295l0 0c0 -6.7665787 5.4853935 -12.251972 12.251968 -12.251972l0 0c3.249424 0 6.365761 1.2908287 8.66345 3.58852c2.2976894 2.2976913 3.58852 5.4140244 3.58852 8.663452l0 0c0 6.766571 -5.4853954 12.251968 -12.25197 12.251968l0 0c-6.766575 0 -12.251968 -5.4853973 -12.251968 -12.251968z" fill-rule="evenodd"/><path stroke="#783f04" stroke-width="4.0" stroke-linejoin="round" stroke-linecap="butt" d="m8.28084 75.324295l0 0c0 -6.7665787 5.4853935 -12.251972 12.251968 -12.251972l0 0c3.249424 0 6.365761 1.2908287 8.66345 3.58852c2.2976894 2.2976913 3.58852 5.4140244 3.58852 8.663452l0 0c0 6.766571 -5.4853954 12.251968 -12.25197 12.251968l0 0c-6.766575 0 -12.251968 -5.4853973 -12.251968 -12.251968z" fill-rule="evenodd"/><path fill="#b45f06" d="m63.214184 75.324295l0 0c0 -6.7665787 5.4853935 -12.251972 12.251972 -12.251972l0 0c3.2494202 0 6.365761 1.2908287 8.6634445 3.58852c2.2976913 2.2976913 3.5885239 5.4140244 3.5885239 8.663452l0 0c0 6.766571 -5.4853973 12.251968 -12.251968 12.251968l0 0c-6.7665787 0 -12.251972 -5.4853973 -12.251972 -12.251968z" fill-rule="evenodd"/><path stroke="#783f04" stroke-width="4.0" stroke-linejoin="round" stroke-linecap="butt" d="m63.214184 75.324295l0 0c0 -6.7665787 5.4853935 -12.251972 12.251972 -12.251972l0 0c3.2494202 0 6.365761 1.2908287 8.6634445 3.58852c2.2976913 2.2976913 3.5885239 5.4140244 3.5885239 8.663452l0 0c0 6.766571 -5.4853973 12.251968 -12.251968 12.251968l0 0c-6.7665787 0 -12.251972 -5.4853973 -12.251972 -12.251968z" fill-rule="evenodd"/><path fill="#783f04" d="m13.115485 20.674484l0 0c0 -4.0964756 3.3208494 -7.417324 7.417323 -7.417324l0 0c1.9671955 0 3.8538208 0.7814665 5.2448387 2.1724844c1.3910179 1.391017 2.1724834 3.2776423 2.1724834 5.2448397l0 0c0 4.0964737 -3.3208485 7.417322 -7.417322 7.417322l0 0c-4.0964737 0 -7.417323 -3.3208485 -7.417323 -7.417322z" fill-rule="evenodd"/><path fill="#783f04" d="m13.115485 75.3254l0 0c0 -4.0964737 3.3208494 -7.4173203 7.417323 -7.4173203l0 0c1.9671955 0 3.8538208 0.7814636 5.2448387 2.1724854c1.3910179 1.3910141 2.1724834 3.2776413 2.1724834 5.244835l0 0c0 4.0964737 -3.3208485 7.4173203 -7.417322 7.4173203l0 0c-4.0964737 0 -7.417323 -3.3208466 -7.417323 -7.4173203z" fill-rule="evenodd"/><path fill="#783f04" d="m68.049866 75.3254l0 0c0 -4.0964737 3.3208542 -7.4173203 7.417328 -7.4173203l0 0c1.9671936 0 3.8538208 0.7814636 5.244835 2.1724854c1.3910217 1.3910141 2.1724854 3.2776413 2.1724854 5.244835l0 0c0 4.0964737 -3.3208466 7.4173203 -7.4173203 7.4173203l0 0c-4.0964737 0 -7.417328 -3.3208466 -7.417328 -7.4173203z" fill-rule="evenodd"/><path fill="#783f04" d="m68.049866 20.674484l0 0c0 -4.0964756 3.3208542 -7.417324 7.417328 -7.417324l0 0c1.9671936 0 3.8538208 0.7814665 5.244835 2.1724844c1.3910217 1.391017 2.1724854 3.2776423 2.1724854 5.2448397l0 0c0 4.0964737 -3.3208466 7.417322 -7.4173203 7.417322l0 0c-4.0964737 0 -7.417328 -3.3208485 -7.417328 -7.417322z" fill-rule="evenodd"/><path fill="#b45f06" d="m35.746994 47.998833l0 0c0 -6.766575 5.4853935 -12.251968 12.251968 -12.251968l0 0c3.249424 0 6.365761 1.2908287 8.663448 3.5885162c2.2976913 2.2976913 3.58852 5.414028 3.58852 8.663452l0 0c0 6.766575 -5.4853935 12.251968 -12.251968 12.251968l0 0c-6.766575 0 -12.251968 -5.4853935 -12.251968 -12.251968z" fill-rule="evenodd"/><path stroke="#783f04" stroke-width="4.0" stroke-linejoin="round" stroke-linecap="butt" d="m35.746994 47.998833l0 0c0 -6.766575 5.4853935 -12.251968 12.251968 -12.251968l0 0c3.249424 0 6.365761 1.2908287 8.663448 3.5885162c2.2976913 2.2976913 3.58852 5.414028 3.58852 8.663452l0 0c0 6.766575 -5.4853935 12.251968 -12.251968 12.251968l0 0c-6.766575 0 -12.251968 -5.4853935 -12.251968 -12.251968z" fill-rule="evenodd"/><path fill="#783f04" d="m40.582676 47.999943l0 0c0 -4.0964737 3.3208504 -7.417324 7.417324 -7.417324l0 0c1.9671974 0 3.8538208 0.78146744 5.2448387 2.1724854c1.3910179 1.3910179 2.1724854 3.2776413 2.1724854 5.2448387l0 0c0 4.0964737 -3.3208504 7.417324 -7.417324 7.417324l0 0c-4.0964737 0 -7.417324 -3.3208504 -7.417324 -7.417324z" fill-rule="evenodd"/><path fill="#ffff00" fill-opacity="0.7233" d="m12.9921255 48.0l0 0c0 -19.334314 15.67356 -35.007874 35.007874 -35.007874l0 0c9.284664 0 18.189056 3.6883192 24.754303 10.25357c6.565254 6.5652504 10.253571 15.469641 10.253571 24.754305l0 0c0 19.334312 -15.673561 35.007874 -35.007874 35.007874l0 0c-19.334314 0 -35.007874 -15.673561 -35.007874 -35.007874z" fill-rule="evenodd"/></g></svg>