<svg version="1.1" viewBox="0.0 0.0 96.0 96.0" fill="none" stroke="none" stroke-linecap="square" stroke-miterlimit="10" xmlns:xlink="http://www.w3.org/1999/xlink" xmlns="http://www.w3.org/2000/svg"><clipPath id="p.0"><path d="m0 0l96.0 0l0 96.0l-96.0 0l0 -96.0z" clip-rule="nonzero"/></clipPath><g clip-path="url(#p.0)"><path fill="#000000" fill-opacity="0.0" d="m0 0l96.0 0l0 96.0l-96.0 0z" fill-rule="evenodd"/><path fill="#b45f06" d="m0 0l96.0 0l0 96.0l-96.0 0z" fill-rule="evenodd"/><path fill="#f6b26b" d="m8.28084 20.674541l0 0c0 -6.766576 5.4853935 -12.251969 12.251968 -12.251969l0 0c3.249424 0 6.365761 1.2908287 8.66345 3.5885181c2.2976894 2.2976904 3.58852 5.414027 3.58852 8.663451l0 0c0 6.766575 -5.4853954 12.251968 -12.25197 12.251968l0 0c-6.766575 0 -12.251968 -5.4853935 -12.251968 -12.251968z" fill-rule="evenodd"/><path stroke="#783f04" stroke-width="4.0" stroke-linejoin="round" stroke-linecap="butt" d="m8.28084 20.674541l0 0c0 -6.766576 5.4853935 -12.251969 12.251968 -12.251969l0 0c3.249424 0 6.365761 1.2908287 8.66345 3.5885181c2.2976894 2.2976904 3.58852 5.414027 3.58852 8.663451l0 0c0 6.766575 -5.4853954 12.251968 -12.25197 12.251968l0 0c-6.766575 0 -12.251968 -5.4853935 -12.251968 -12.251968z" fill-rule="evenodd"/><path fill="#f6b26b" d="m63.214184 20.674541l0 0c0 -6.766576 5.4853935 -12.251969 12.251972 -12.251969l0 0c3.2494202 0 6.365761 1.2908287 8.6634445 3.5885181c2.2976913 2.2976904 3.5885239 5.414027 3.5885239 8.663451l0 0c0 6.766575 -5.4853973 12.251968 -12.251968 12.251968l0 0c-6.7665787 0 -12.251972 -5.4853935 -12.251972 -12.251968z" fill-rule="evenodd"/><path stroke="#783f04" stroke-width="4.0" stroke-linejoin="round" stroke-linecap="butt" d="m63.214184 20.674541l0 0c0 -6.766576 5.4853935 -12.251969 12.251972 -12.251969l0 0c3.2494202 0 6.365761 1.2908287 8.6634445 3.5885181c2.2976913 2.2976904 3.5885239 5.414027 3.5885239 8.663451l0 0c0 6.766575 -5.4853973 12.251968 -12.251968 12.251968l0 0c-6.7665787 0 -12.251972 -5.4853935 -12.251972 -12.251968z" fill-rule="evenodd"/><path fill="#f6b26b" d="m8.28084 75.324295l0 0c0 -6.7665787 5.4853935 -12.251972 12.251968 -12.251972l0 0c3.249424 0 6.365761 1.2908287 8.66345 3.58852c2.2976894 2.2976913 3.58852 5.4140244 3.58852 8.663452l0 0c0 6.766571 -5.4853954 12.251968 -12.25197 12.251968l0 0c-6.766575 0 -12.251968 -5.4853973 -12.251968 -12.251968z" fill-rule="evenodd"/><path stroke="#783f04" stroke-width="4.0" stroke-linejoin="round" stroke-linecap="butt" d="m8.28084 75.324295l0 0c0 -6.7665787 5.4853935 -12.251972 12.251968 -12.251972l0 0c3.249424 0 6.365761 1.2908287 8.66345 3.58852c2.2976894 2.2976913 3.58852 5.4140244 3.58852 8.663452l0 0c0 6.766571 -5.4853954 12.251968 -12.25197 12.251968l0 0c-6.766575 0 -12.251968 -5.4853973 -12.251968 -12.251968z" fill-rule="evenodd"/><path fill="#f6b26b" d="m63.214184 75.324295l0 0c0 -6.7665787 5.4853935 -12.251972 12.251972 -12.251972l0 0c3.2494202 0 6.365761 1.2908287 8.6634445 3.58852c2.2976913 2.2976913 3.5885239 5.4140244 3.5885239 8.663452l0 0c0 6.766571 -5.4853973 12.251968 -12.251968 12.251968l0 0c-6.7665787 0 -12.251972 -5.4853973 -12.251972 -12.251968z" fill-rule="evenodd"/><path stroke="#783f04" stroke-width="4.0" stroke-linejoin="round" stroke-linecap="butt" d="m63.214184 75.324295l0 0c0 -6.7665787 5.4853935 -12.251972 12.251972 -12.251972l0 0c3.2494202 0 6.365761 1.2908287 8.6634445 3.58852c2.2976913 2.2976913 3.5885239 5.4140244 3.5885239 8.663452l0 0c0 6.766571 -5.4853973 12.251968 -12.251968 12.251968l0 0c-6.7665787 0 -12.251972 -5.4853973 -12.251972 -12.251968z" fill-rule="evenodd"/><defs><radialGradient id="p.1" gradientUnits="userSpaceOnUse" gradientTransform="matrix(7.600735617199969 0.0 0.0 7.600735617199969 0.0 0.0)" spreadMethod="pad" cx="3.6279669461072843" cy="3.6279669461072848" fx="3.6279669461072843" fy="3.6279669461072848" r="7.600735664367676"><stop offset="0.0" stop-color="#ff1515"/><stop offset="0.26" stop-color="#e71e1e"/><stop offset="1.0" stop-color="#c31b1b"/></radialGradient></defs><path fill="url(#p.1)" d="m27.575218 48.000416l0 0c0 -11.280525 9.144672 -20.425198 20.425198 -20.425198l0 0c5.417099 0 10.612328 2.1519337 14.442795 5.982403c3.8304634 3.8304672 5.982403 9.025696 5.982403 14.442795l0 0c0 11.280525 -9.144672 20.425198 -20.425198 20.425198l0 0c-11.280525 0 -20.425198 -9.144672 -20.425198 -20.425198z" fill-rule="evenodd"/><path stroke="#990000" stroke-width="2.0" stroke-linejoin="round" stroke-linecap="butt" d="m27.575218 48.000416l0 0c0 -11.280525 9.144672 -20.425198 20.425198 -20.425198l0 0c5.417099 0 10.612328 2.1519337 14.442795 5.982403c3.8304634 3.8304672 5.982403 9.025696 5.982403 14.442795l0 0c0 11.280525 -9.144672 20.425198 -20.425198 20.425198l0 0c-11.280525 0 -20.425198 -9.144672 -20.425198 -20.425198z" fill-rule="evenodd"/><defs><radialGradient id="p.2" gradientUnits="userSpaceOnUse" gradientTransform="matrix(7.600735617199969 0.0 0.0 7.600735617199969 0.0 0.0)" spreadMethod="pad" cx="-8.84250718647475" cy="3.4708471906085774" fx="-8.84250718647475" fy="3.4708471906085774" r="7.600735664367676"><stop offset="0.0" stop-color="#4545de"/><stop offset="0.26" stop-color="#4f4fd9"/><stop offset="1.0" stop-color="#5a5ab5"/></radialGradient></defs><path fill="url(#p.2)" d="m-67.20956 46.80619l0 0c0 -11.280525 9.144669 -20.4252 20.425194 -20.4252l0 0c5.417099 0 10.612328 2.1519356 14.442795 5.982401c3.8304672 3.8304672 5.982403 9.0257 5.982403 14.442799l0 0c0 11.280521 -9.144672 20.425194 -20.425198 20.425194l0 0c-11.280525 0 -20.425194 -9.144672 -20.425194 -20.425194z" fill-rule="evenodd"/><path stroke="#4e4e89" stroke-width="2.0" stroke-linejoin="round" stroke-linecap="butt" d="m-67.20956 46.80619l0 0c0 -11.280525 9.144669 -20.4252 20.425194 -20.4252l0 0c5.417099 0 10.612328 2.1519356 14.442795 5.982401c3.8304672 3.8304672 5.982403 9.0257 5.982403 14.442799l0 0c0 11.280521 -9.144672 20.425194 -20.425198 20.425194l0 0c-11.280525 0 -20.425194 -9.144672 -20.425194 -20.425194z" fill-rule="evenodd"/><path fill="#ffff00" fill-opacity="0.7233" d="m-90.855644 103.87664l0 0c0 -19.334312 15.673561 -35.007874 35.007874 -35.007874l0 0c9.284668 0 18.189056 3.6883163 24.754307 10.253571c6.5652504 6.5652466 10.253569 15.469635 10.253569 24.754303l0 0c0 19.334312 -15.673559 35.00788 -35.007874 35.00788l0 0c-19.334312 0 -35.007874 -15.673569 -35.007874 -35.00788z" fill-rule="evenodd"/></g></svg>