<svg version="1.1" viewBox="0.0 0.0 96.0 96.0" fill="none" stroke="none" stroke-linecap="square" stroke-miterlimit="10" xmlns:xlink="http://www.w3.org/1999/xlink" xmlns="http://www.w3.org/2000/svg"><clipPath id="p.0"><path d="m0 0l96.0 0l0 96.0l-96.0 0l0 -96.0z" clip-rule="nonzero"/></clipPath><g clip-path="url(#p.0)"><path fill="#000000" fill-opacity="0.0" d="m0 0l96.0 0l0 96.0l-96.0 0z" fill-rule="evenodd"/><path fill="#b45f06" d="m0 0l96.0 0l0 96.0l-96.0 0z" fill-rule="evenodd"/><path fill="#f6b26b" d="m8.28084 20.674541l0 0c0 -6.766576 5.4853935 -12.251969 12.251968 -12.251969l0 0c3.249424 0 6.365761 1.2908287 8.66345 3.5885181c2.2976894 2.2976904 3.58852 5.414027 3.58852 8.663451l0 0c0 6.766575 -5.4853954 12.251968 -12.25197 12.251968l0 0c-6.766575 0 -12.251968 -5.4853935 -12.251968 -12.251968z" fill-rule="evenodd"/><path stroke="#783f04" stroke-width="4.0" stroke-linejoin="round" stroke-linecap="butt" d="m8.28084 20.674541l0 0c0 -6.766576 5.4853935 -12.251969 12.251968 -12.251969l0 0c3.249424 0 6.365761 1.2908287 8.66345 3.5885181c2.2976894 2.2976904 3.58852 5.414027 3.58852 8.663451l0 0c0 6.766575 -5.4853954 12.251968 -12.25197 12.251968l0 0c-6.766575 0 -12.251968 -5.4853935 -12.251968 -12.251968z" fill-rule="evenodd"/><path fill="#f6b26b" d="m63.214184 20.674541l0 0c0 -6.766576 5.4853935 -12.251969 12.251972 -12.251969l0 0c3.2494202 0 6.365761 1.2908287 8.6634445 3.5885181c2.2976913 2.2976904 3.5885239 5.414027 3.5885239 8.663451l0 0c0 6.766575 -5.4853973 12.251968 -12.251968 12.251968l0 0c-6.7665787 0 -12.251972 -5.4853935 -12.251972 -12.251968z" fill-rule="evenodd"/><path stroke="#783f04" stroke-width="4.0" stroke-linejoin="round" stroke-linecap="butt" d="m63.214184 20.674541l0 0c0 -6.766576 5.4853935 -12.251969 12.251972 -12.251969l0 0c3.2494202 0 6.365761 1.2908287 8.6634445 3.5885181c2.2976913 2.2976904 3.5885239 5.414027 3.5885239 8.663451l0 0c0 6.766575 -5.4853973 12.251968 -12.251968 12.251968l0 0c-6.7665787 0 -12.251972 -5.4853935 -12.251972 -12.251968z" fill-rule="evenodd"/><path fill="#f6b26b" d="m8.28084 75.324295l0 0c0 -6.7665787 5.4853935 -12.251972 12.251968 -12.251972l0 0c3.249424 0 6.365761 1.2908287 8.66345 3.58852c2.2976894 2.2976913 3.58852 5.4140244 3.58852 8.663452l0 0c0 6.766571 -5.4853954 12.251968 -12.25197 12.251968l0 0c-6.766575 0 -12.251968 -5.4853973 -12.251968 -12.251968z" fill-rule="evenodd"/><path stroke="#783f04" stroke-width="4.0" stroke-linejoin="round" stroke-linecap="butt" d="m8.28084 75.324295l0 0c0 -6.7665787 5.4853935 -12.251972 12.251968 -12.251972l0 0c3.249424 0 6.365761 1.2908287 8.66345 3.58852c2.2976894 2.2976913 3.58852 5.4140244 3.58852 8.663452l0 0c0 6.766571 -5.4853954 12.251968 -12.25197 12.251968l0 0c-6.766575 0 -12.251968 -5.4853973 -12.251968 -12.251968z" fill-rule="evenodd"/><path fill="#f6b26b" d="m63.214184 75.324295l0 0c0 -6.7665787 5.4853935 -12.251972 12.251972 -12.251972l0 0c3.2494202 0 6.365761 1.2908287 8.6634445 3.58852c2.2976913 2.2976913 3.5885239 5.4140244 3.5885239 8.663452l0 0c0 6.766571 -5.4853973 12.251968 -12.251968 12.251968l0 0c-6.7665787 0 -12.251972 -5.4853973 -12.251972 -12.251968z" fill-rule="evenodd"/><path stroke="#783f04" stroke-width="4.0" stroke-linejoin="round" stroke-linecap="butt" d="m63.214184 75.324295l0 0c0 -6.7665787 5.4853935 -12.251972 12.251972 -12.251972l0 0c3.2494202 0 6.365761 1.2908287 8.6634445 3.58852c2.2976913 2.2976913 3.5885239 5.4140244 3.5885239 8.663452l0 0c0 6.766571 -5.4853973 12.251968 -12.251968 12.251968l0 0c-6.7665787 0 -12.251972 -5.4853973 -12.251972 -12.251968z" fill-rule="evenodd"/><path fill="#ffff00" fill-opacity="0.7233" d="m12.9921255 48.0l0 0c0 -19.334314 15.67356 -35.007874 35.007874 -35.007874l0 0c9.284664 0 18.189056 3.6883192 24.754303 10.25357c6.565254 6.5652504 10.253571 15.469641 10.253571 24.754305l0 0c0 19.334312 -15.673561 35.007874 -35.007874 35.007874l0 0c-19.334314 0 -35.007874 -15.673561 -35.007874 -35.007874z" fill-rule="evenodd"/></g></svg>