<svg version="1.1" viewBox="0.0 0.0 96.0 96.0" fill="none" stroke="none" stroke-linecap="square" stroke-miterlimit="10" xmlns:xlink="http://www.w3.org/1999/xlink" xmlns="http://www.w3.org/2000/svg"><clipPath id="multiHatchBlue.0"><path d="m0 0l96.0 0l0 96.0l-96.0 0l0 -96.0z" clip-rule="nonzero"/></clipPath><g clip-path="url(#multiHatchBlue.0)"><path fill="#000000" fill-opacity="0.0" d="m0 0l96.0 0l0 96.0l-96.0 0z" fill-rule="evenodd"/><path fill="#e69138" d="m0 0l96.0 0l0 96.0l-96.0 0z" fill-rule="evenodd"/><path fill="#b45f06" d="m9.014901 14.85548l0 0c0 -3.1658525 2.566431 -5.7322826 5.7322836 -5.7322826l0 0c1.5202961 0 2.978325 0.60393524 4.053337 1.6789465c1.0750103 1.0750113 1.6789455 2.53304 1.6789455 4.053336l0 0c0 3.1658535 -2.566431 5.7322845 -5.7322826 5.7322845l0 0c-3.1658525 0 -5.7322836 -2.566431 -5.7322836 -5.7322845z" fill-rule="evenodd"/><path stroke="#783f04" stroke-width="2.0" stroke-linejoin="round" stroke-linecap="butt" d="m9.014901 14.85548l0 0c0 -3.1658525 2.566431 -5.7322826 5.7322836 -5.7322826l0 0c1.5202961 0 2.978325 0.60393524 4.053337 1.6789465c1.0750103 1.0750113 1.6789455 2.53304 1.6789455 4.053336l0 0c0 3.1658535 -2.566431 5.7322845 -5.7322826 5.7322845l0 0c-3.1658525 0 -5.7322836 -2.566431 -5.7322836 -5.7322845z" fill-rule="evenodd"/><path fill="#783f04" d="m11.280324 14.869046l0 0c0 -1.9221249 1.5581903 -3.4803143 3.4803152 -3.4803143l0 0c0.9230366 0 1.8082695 0.36667442 2.4609547 1.0193605c0.65268517 0.65268517 1.0193596 1.5379171 1.0193596 2.4609537l0 0c0 1.9221258 -1.5581894 3.4803152 -3.4803143 3.4803152l0 0c-1.9221249 0 -3.4803152 -1.5581894 -3.4803152 -3.4803152z" fill-rule="evenodd"/><path fill="#b45f06" d="m9.014901 32.02981l0 0c0 -3.1658516 2.566431 -5.7322807 5.7322836 -5.7322807l0 0c1.5202961 0 2.978325 0.60393524 4.053337 1.6789455c1.0750103 1.0750122 1.6789455 2.533041 1.6789455 4.053335l0 0c0 3.1658554 -2.566431 5.7322845 -5.7322826 5.7322845l0 0c-3.1658525 0 -5.7322836 -2.5664291 -5.7322836 -5.7322845z" fill-rule="evenodd"/><path stroke="#783f04" stroke-width="2.0" stroke-linejoin="round" stroke-linecap="butt" d="m9.014901 32.02981l0 0c0 -3.1658516 2.566431 -5.7322807 5.7322836 -5.7322807l0 0c1.5202961 0 2.978325 0.60393524 4.053337 1.6789455c1.0750103 1.0750122 1.6789455 2.533041 1.6789455 4.053335l0 0c0 3.1658554 -2.566431 5.7322845 -5.7322826 5.7322845l0 0c-3.1658525 0 -5.7322836 -2.5664291 -5.7322836 -5.7322845z" fill-rule="evenodd"/><path fill="#783f04" d="m11.280324 32.043926l0 0c0 -1.9221249 1.5581903 -3.4803143 3.4803152 -3.4803143l0 0c0.9230366 0 1.8082695 0.36667442 2.4609547 1.0193596c0.65268517 0.6526871 1.0193596 1.5379181 1.0193596 2.4609547l0 0c0 1.9221268 -1.5581894 3.4803162 -3.4803143 3.4803162l0 0c-1.9221249 0 -3.4803152 -1.5581894 -3.4803152 -3.4803162z" fill-rule="evenodd"/><path fill="#b45f06" d="m26.102003 32.031372l0 0c0 -3.1658554 2.566431 -5.7322845 5.7322845 -5.7322845l0 0c1.5202961 0 2.978323 0.60393524 4.053335 1.6789455c1.0750122 1.0750122 1.6789474 2.533041 1.6789474 4.053339l0 0c0 3.1658516 -2.5664291 5.7322807 -5.7322826 5.7322807l0 0c-3.1658535 0 -5.7322845 -2.5664291 -5.7322845 -5.7322807z" fill-rule="evenodd"/><path stroke="#783f04" stroke-width="2.0" stroke-linejoin="round" stroke-linecap="butt" d="m26.102003 32.031372l0 0c0 -3.1658554 2.566431 -5.7322845 5.7322845 -5.7322845l0 0c1.5202961 0 2.978323 0.60393524 4.053335 1.6789455c1.0750122 1.0750122 1.6789474 2.533041 1.6789474 4.053339l0 0c0 3.1658516 -2.5664291 5.7322807 -5.7322826 5.7322807l0 0c-3.1658535 0 -5.7322845 -2.5664291 -5.7322845 -5.7322807z" fill-rule="evenodd"/><path fill="#783f04" d="m28.367912 32.045483l0 0c0 -1.9221249 1.5581913 -3.4803143 3.4803162 -3.4803143l0 0c0.92303467 0 1.8082695 0.36667442 2.4609528 1.0193615c0.6526871 0.65268517 1.0193596 1.5379162 1.0193596 2.4609528l0 0c0 1.9221268 -1.5581894 3.4803162 -3.4803123 3.4803162l0 0c-1.9221249 0 -3.4803162 -1.5581894 -3.4803162 -3.4803162z" fill-rule="evenodd"/><path fill="#b45f06" d="m26.098585 14.85548l0 0c0 -3.1658525 2.566431 -5.7322826 5.7322826 -5.7322826l0 0c1.520298 0 2.978325 0.60393524 4.053337 1.6789465c1.0750122 1.0750113 1.6789474 2.53304 1.6789474 4.053336l0 0c0 3.1658535 -2.566433 5.7322845 -5.7322845 5.7322845l0 0c-3.1658516 0 -5.7322826 -2.566431 -5.7322826 -5.7322845z" fill-rule="evenodd"/><path stroke="#783f04" stroke-width="2.0" stroke-linejoin="round" stroke-linecap="butt" d="m26.098585 14.85548l0 0c0 -3.1658525 2.566431 -5.7322826 5.7322826 -5.7322826l0 0c1.520298 0 2.978325 0.60393524 4.053337 1.6789465c1.0750122 1.0750113 1.6789474 2.53304 1.6789474 4.053336l0 0c0 3.1658535 -2.566433 5.7322845 -5.7322845 5.7322845l0 0c-3.1658516 0 -5.7322826 -2.566431 -5.7322826 -5.7322845z" fill-rule="evenodd"/><path fill="#783f04" d="m28.364494 14.869046l0 0c0 -1.9221249 1.5581894 -3.4803143 3.4803143 -3.4803143l0 0c0.9230366 0 1.8082676 0.36667442 2.4609547 1.0193605c0.65268326 0.65268517 1.0193596 1.5379171 1.0193596 2.4609537l0 0c0 1.9221258 -1.5581894 3.4803152 -3.4803143 3.4803152l0 0c-1.9221249 0 -3.4803143 -1.5581894 -3.4803143 -3.4803152z" fill-rule="evenodd"/><path fill="#b45f06" d="m17.5565 23.442373l0 0c0 -3.1658516 2.566431 -5.7322826 5.7322845 -5.7322826l0 0c1.5202961 0 2.978325 0.60393524 4.053335 1.6789455c1.0750122 1.0750122 1.6789474 2.533041 1.6789474 4.053337l0 0c0 3.1658535 -2.566431 5.7322845 -5.7322826 5.7322845l0 0c-3.1658535 0 -5.7322845 -2.566431 -5.7322845 -5.7322845z" fill-rule="evenodd"/><path stroke="#783f04" stroke-width="2.0" stroke-linejoin="round" stroke-linecap="butt" d="m17.5565 23.442373l0 0c0 -3.1658516 2.566431 -5.7322826 5.7322845 -5.7322826l0 0c1.5202961 0 2.978325 0.60393524 4.053335 1.6789455c1.0750122 1.0750122 1.6789474 2.533041 1.6789474 4.053337l0 0c0 3.1658535 -2.566431 5.7322845 -5.7322826 5.7322845l0 0c-3.1658535 0 -5.7322845 -2.566431 -5.7322845 -5.7322845z" fill-rule="evenodd"/><path fill="#783f04" d="m19.822409 23.456486l0 0c0 -1.9221249 1.5581894 -3.4803143 3.4803143 -3.4803143l0 0c0.9230385 0 1.8082695 0.36667442 2.4609547 1.0193615c0.6526871 0.65268517 1.0193615 1.5379162 1.0193615 2.4609528l0 0c0 1.9221249 -1.5581894 3.4803162 -3.4803162 3.4803162l0 0c-1.9221249 0 -3.4803143 -1.5581913 -3.4803143 -3.4803162z" fill-rule="evenodd"/><path fill="#b45f06" d="m58.43485 14.85548l0 0c0 -3.1658525 2.5664291 -5.7322826 5.7322807 -5.7322826l0 0c1.5203018 0 2.978325 0.60393524 4.053337 1.6789465c1.0750122 1.0750113 1.6789474 2.53304 1.6789474 4.053336l0 0c0 3.1658535 -2.5664291 5.7322845 -5.7322845 5.7322845l0 0c-3.1658516 0 -5.7322807 -2.566431 -5.7322807 -5.7322845z" fill-rule="evenodd"/><path stroke="#783f04" stroke-width="2.0" stroke-linejoin="round" stroke-linecap="butt" d="m58.43485 14.85548l0 0c0 -3.1658525 2.5664291 -5.7322826 5.7322807 -5.7322826l0 0c1.5203018 0 2.978325 0.60393524 4.053337 1.6789465c1.0750122 1.0750113 1.6789474 2.53304 1.6789474 4.053336l0 0c0 3.1658535 -2.5664291 5.7322845 -5.7322845 5.7322845l0 0c-3.1658516 0 -5.7322807 -2.566431 -5.7322807 -5.7322845z" fill-rule="evenodd"/><path fill="#783f04" d="m60.70027 14.869046l0 0c0 -1.9221249 1.5581894 -3.4803143 3.4803162 -3.4803143l0 0c0.92303467 0 1.8082657 0.36667442 2.4609528 1.0193605c0.6526871 0.65268517 1.0193634 1.5379171 1.0193634 2.4609537l0 0c0 1.9221258 -1.5581894 3.4803152 -3.4803162 3.4803152l0 0c-1.9221268 0 -3.4803162 -1.5581894 -3.4803162 -3.4803152z" fill-rule="evenodd"/><path fill="#b45f06" d="m58.43485 32.02981l0 0c0 -3.1658516 2.5664291 -5.7322807 5.7322807 -5.7322807l0 0c1.5203018 0 2.978325 0.60393524 4.053337 1.6789455c1.0750122 1.0750122 1.6789474 2.533041 1.6789474 4.053335l0 0c0 3.1658554 -2.5664291 5.7322845 -5.7322845 5.7322845l0 0c-3.1658516 0 -5.7322807 -2.5664291 -5.7322807 -5.7322845z" fill-rule="evenodd"/><path stroke="#783f04" stroke-width="2.0" stroke-linejoin="round" stroke-linecap="butt" d="m58.43485 32.02981l0 0c0 -3.1658516 2.5664291 -5.7322807 5.7322807 -5.7322807l0 0c1.5203018 0 2.978325 0.60393524 4.053337 1.6789455c1.0750122 1.0750122 1.6789474 2.533041 1.6789474 4.053335l0 0c0 3.1658554 -2.5664291 5.7322845 -5.7322845 5.7322845l0 0c-3.1658516 0 -5.7322807 -2.5664291 -5.7322807 -5.7322845z" fill-rule="evenodd"/><path fill="#783f04" d="m60.70027 32.043926l0 0c0 -1.9221249 1.5581894 -3.4803143 3.4803162 -3.4803143l0 0c0.92303467 0 1.8082657 0.36667442 2.4609528 1.0193596c0.6526871 0.6526871 1.0193634 1.5379181 1.0193634 2.4609547l0 0c0 1.9221268 -1.5581894 3.4803162 -3.4803162 3.4803162l0 0c-1.9221268 0 -3.4803162 -1.5581894 -3.4803162 -3.4803162z" fill-rule="evenodd"/><path fill="#b45f06" d="m75.52195 32.031372l0 0c0 -3.1658554 2.5664291 -5.7322845 5.7322845 -5.7322845l0 0c1.5202942 0 2.978325 0.60393524 4.053337 1.6789455c1.0750122 1.0750122 1.6789474 2.533041 1.6789474 4.053339l0 0c0 3.1658516 -2.5664291 5.7322807 -5.7322845 5.7322807l0 0c-3.1658554 0 -5.7322845 -2.5664291 -5.7322845 -5.7322807z" fill-rule="evenodd"/><path stroke="#783f04" stroke-width="2.0" stroke-linejoin="round" stroke-linecap="butt" d="m75.52195 32.031372l0 0c0 -3.1658554 2.5664291 -5.7322845 5.7322845 -5.7322845l0 0c1.5202942 0 2.978325 0.60393524 4.053337 1.6789455c1.0750122 1.0750122 1.6789474 2.533041 1.6789474 4.053339l0 0c0 3.1658516 -2.5664291 5.7322807 -5.7322845 5.7322807l0 0c-3.1658554 0 -5.7322845 -2.5664291 -5.7322845 -5.7322807z" fill-rule="evenodd"/><path fill="#783f04" d="m77.78786 32.045483l0 0c0 -1.9221249 1.5581894 -3.4803143 3.4803162 -3.4803143l0 0c0.9230423 0 1.8082733 0.36667442 2.4609528 1.0193615c0.6526871 0.65268517 1.0193634 1.5379162 1.0193634 2.4609528l0 0c0 1.9221268 -1.5581894 3.4803162 -3.4803162 3.4803162l0 0c-1.9221268 0 -3.4803162 -1.5581894 -3.4803162 -3.4803162z" fill-rule="evenodd"/><path fill="#b45f06" d="m75.51853 14.85548l0 0c0 -3.1658525 2.5664291 -5.7322826 5.7322845 -5.7322826l0 0c1.5202942 0 2.978325 0.60393524 4.053337 1.6789465c1.0750122 1.0750113 1.6789474 2.53304 1.6789474 4.053336l0 0c0 3.1658535 -2.5664291 5.7322845 -5.7322845 5.7322845l0 0c-3.1658554 0 -5.7322845 -2.566431 -5.7322845 -5.7322845z" fill-rule="evenodd"/><path stroke="#783f04" stroke-width="2.0" stroke-linejoin="round" stroke-linecap="butt" d="m75.51853 14.85548l0 0c0 -3.1658525 2.5664291 -5.7322826 5.7322845 -5.7322826l0 0c1.5202942 0 2.978325 0.60393524 4.053337 1.6789465c1.0750122 1.0750113 1.6789474 2.53304 1.6789474 4.053336l0 0c0 3.1658535 -2.5664291 5.7322845 -5.7322845 5.7322845l0 0c-3.1658554 0 -5.7322845 -2.566431 -5.7322845 -5.7322845z" fill-rule="evenodd"/><path fill="#783f04" d="m77.78444 14.869046l0 0c0 -1.9221249 1.5581894 -3.4803143 3.4803162 -3.4803143l0 0c0.92303467 0 1.8082657 0.36667442 2.4609528 1.0193605c0.6526871 0.65268517 1.0193634 1.5379171 1.0193634 2.4609537l0 0c0 1.9221258 -1.5581894 3.4803152 -3.4803162 3.4803152l0 0c-1.9221268 0 -3.4803162 -1.5581894 -3.4803162 -3.4803152z" fill-rule="evenodd"/><path fill="#b45f06" d="m66.97645 23.442373l0 0c0 -3.1658516 2.5664291 -5.7322826 5.7322845 -5.7322826l0 0c1.5202942 0 2.978325 0.60393524 4.053337 1.6789455c1.0750122 1.0750122 1.6789474 2.533041 1.6789474 4.053337l0 0c0 3.1658535 -2.5664368 5.7322845 -5.7322845 5.7322845l0 0c-3.1658554 0 -5.7322845 -2.566431 -5.7322845 -5.7322845z" fill-rule="evenodd"/><path stroke="#783f04" stroke-width="2.0" stroke-linejoin="round" stroke-linecap="butt" d="m66.97645 23.442373l0 0c0 -3.1658516 2.5664291 -5.7322826 5.7322845 -5.7322826l0 0c1.5202942 0 2.978325 0.60393524 4.053337 1.6789455c1.0750122 1.0750122 1.6789474 2.533041 1.6789474 4.053337l0 0c0 3.1658535 -2.5664368 5.7322845 -5.7322845 5.7322845l0 0c-3.1658554 0 -5.7322845 -2.566431 -5.7322845 -5.7322845z" fill-rule="evenodd"/><path fill="#783f04" d="m69.242355 23.456486l0 0c0 -1.9221249 1.5581894 -3.4803143 3.4803162 -3.4803143l0 0c0.92303467 0 1.8082657 0.36667442 2.4609528 1.0193615c0.6526871 0.65268517 1.0193634 1.5379162 1.0193634 2.4609528l0 0c0 1.9221249 -1.5581894 3.4803162 -3.4803162 3.4803162l0 0c-1.9221268 0 -3.4803162 -1.5581913 -3.4803162 -3.4803162z" fill-rule="evenodd"/><path fill="#b45f06" d="m9.014901 63.97019l0 0c0 -3.1658516 2.566431 -5.7322845 5.7322836 -5.7322845l0 0c1.5202961 0 2.978325 0.60393524 4.053337 1.6789474c1.0750103 1.0750122 1.6789455 2.533043 1.6789455 4.053337l0 0c0 3.1658516 -2.566431 5.7322807 -5.7322826 5.7322807l0 0c-3.1658525 0 -5.7322836 -2.5664291 -5.7322836 -5.7322807z" fill-rule="evenodd"/><path stroke="#783f04" stroke-width="2.0" stroke-linejoin="round" stroke-linecap="butt" d="m9.014901 63.97019l0 0c0 -3.1658516 2.566431 -5.7322845 5.7322836 -5.7322845l0 0c1.5202961 0 2.978325 0.60393524 4.053337 1.6789474c1.0750103 1.0750122 1.6789455 2.533043 1.6789455 4.053337l0 0c0 3.1658516 -2.566431 5.7322807 -5.7322826 5.7322807l0 0c-3.1658525 0 -5.7322836 -2.5664291 -5.7322836 -5.7322807z" fill-rule="evenodd"/><path fill="#783f04" d="m11.280324 63.983753l0 0c0 -1.922123 1.5581903 -3.4803123 3.4803152 -3.4803123l0 0c0.9230366 0 1.8082695 0.36667252 2.4609547 1.0193596c0.65268517 0.65268326 1.0193596 1.5379181 1.0193596 2.4609528l0 0c0 1.922123 -1.5581894 3.4803123 -3.4803143 3.4803123l0 0c-1.9221249 0 -3.4803152 -1.5581894 -3.4803152 -3.4803123z" fill-rule="evenodd"/><path fill="#b45f06" d="m9.014901 81.14452l0 0c0 -3.1658554 2.566431 -5.7322845 5.7322836 -5.7322845l0 0c1.5202961 0 2.978325 0.60393524 4.053337 1.6789474c1.0750103 1.0750122 1.6789455 2.5330353 1.6789455 4.053337l0 0c0 3.1658478 -2.566431 5.7322845 -5.7322826 5.7322845l0 0c-3.1658525 0 -5.7322836 -2.5664368 -5.7322836 -5.7322845z" fill-rule="evenodd"/><path stroke="#783f04" stroke-width="2.0" stroke-linejoin="round" stroke-linecap="butt" d="m9.014901 81.14452l0 0c0 -3.1658554 2.566431 -5.7322845 5.7322836 -5.7322845l0 0c1.5202961 0 2.978325 0.60393524 4.053337 1.6789474c1.0750103 1.0750122 1.6789455 2.5330353 1.6789455 4.053337l0 0c0 3.1658478 -2.566431 5.7322845 -5.7322826 5.7322845l0 0c-3.1658525 0 -5.7322836 -2.5664368 -5.7322836 -5.7322845z" fill-rule="evenodd"/><path fill="#783f04" d="m11.280324 81.15864l0 0c0 -1.9221268 1.5581903 -3.4803162 3.4803152 -3.4803162l0 0c0.9230366 0 1.8082695 0.36667633 2.4609547 1.0193558c0.65268517 0.6526871 1.0193596 1.5379181 1.0193596 2.4609604l0 0c0 1.9221191 -1.5581894 3.4803085 -3.4803143 3.4803085l0 0c-1.9221249 0 -3.4803152 -1.5581894 -3.4803152 -3.4803085z" fill-rule="evenodd"/><path fill="#b45f06" d="m26.102003 81.14608l0 0c0 -3.1658554 2.566431 -5.7322845 5.7322845 -5.7322845l0 0c1.5202961 0 2.978323 0.60393524 4.053335 1.6789474c1.0750122 1.0750122 1.6789474 2.5330353 1.6789474 4.053337l0 0c0 3.1658478 -2.5664291 5.7322845 -5.7322826 5.7322845l0 0c-3.1658535 0 -5.7322845 -2.5664368 -5.7322845 -5.7322845z" fill-rule="evenodd"/><path stroke="#783f04" stroke-width="2.0" stroke-linejoin="round" stroke-linecap="butt" d="m26.102003 81.14608l0 0c0 -3.1658554 2.566431 -5.7322845 5.7322845 -5.7322845l0 0c1.5202961 0 2.978323 0.60393524 4.053335 1.6789474c1.0750122 1.0750122 1.6789474 2.5330353 1.6789474 4.053337l0 0c0 3.1658478 -2.5664291 5.7322845 -5.7322826 5.7322845l0 0c-3.1658535 0 -5.7322845 -2.5664368 -5.7322845 -5.7322845z" fill-rule="evenodd"/><path fill="#783f04" d="m28.367912 81.160194l0 0c0 -1.9221268 1.5581913 -3.4803162 3.4803162 -3.4803162l0 0c0.92303467 0 1.8082695 0.36667633 2.4609528 1.0193558c0.6526871 0.6526871 1.0193596 1.5379181 1.0193596 2.4609604l0 0c0 1.9221191 -1.5581894 3.4803085 -3.4803123 3.4803085l0 0c-1.9221249 0 -3.4803162 -1.5581894 -3.4803162 -3.4803085z" fill-rule="evenodd"/><path fill="#b45f06" d="m26.098585 63.97019l0 0c0 -3.1658516 2.566431 -5.7322845 5.7322826 -5.7322845l0 0c1.520298 0 2.978325 0.60393524 4.053337 1.6789474c1.0750122 1.0750122 1.6789474 2.533043 1.6789474 4.053337l0 0c0 3.1658516 -2.566433 5.7322807 -5.7322845 5.7322807l0 0c-3.1658516 0 -5.7322826 -2.5664291 -5.7322826 -5.7322807z" fill-rule="evenodd"/><path stroke="#783f04" stroke-width="2.0" stroke-linejoin="round" stroke-linecap="butt" d="m26.098585 63.97019l0 0c0 -3.1658516 2.566431 -5.7322845 5.7322826 -5.7322845l0 0c1.520298 0 2.978325 0.60393524 4.053337 1.6789474c1.0750122 1.0750122 1.6789474 2.533043 1.6789474 4.053337l0 0c0 3.1658516 -2.566433 5.7322807 -5.7322845 5.7322807l0 0c-3.1658516 0 -5.7322826 -2.5664291 -5.7322826 -5.7322807z" fill-rule="evenodd"/><path fill="#783f04" d="m28.364494 63.983753l0 0c0 -1.922123 1.5581894 -3.4803123 3.4803143 -3.4803123l0 0c0.9230366 0 1.8082676 0.36667252 2.4609547 1.0193596c0.65268326 0.65268326 1.0193596 1.5379181 1.0193596 2.4609528l0 0c0 1.922123 -1.5581894 3.4803123 -3.4803143 3.4803123l0 0c-1.9221249 0 -3.4803143 -1.5581894 -3.4803143 -3.4803123z" fill-rule="evenodd"/><path fill="#b45f06" d="m17.5565 72.55708l0 0c0 -3.1658554 2.566431 -5.7322845 5.7322845 -5.7322845l0 0c1.5202961 0 2.978325 0.60393524 4.053335 1.6789474c1.0750122 1.0750122 1.6789474 2.5330353 1.6789474 4.053337l0 0c0 3.1658478 -2.566431 5.7322845 -5.7322826 5.7322845l0 0c-3.1658535 0 -5.7322845 -2.5664368 -5.7322845 -5.7322845z" fill-rule="evenodd"/><path stroke="#783f04" stroke-width="2.0" stroke-linejoin="round" stroke-linecap="butt" d="m17.5565 72.55708l0 0c0 -3.1658554 2.566431 -5.7322845 5.7322845 -5.7322845l0 0c1.5202961 0 2.978325 0.60393524 4.053335 1.6789474c1.0750122 1.0750122 1.6789474 2.5330353 1.6789474 4.053337l0 0c0 3.1658478 -2.566431 5.7322845 -5.7322826 5.7322845l0 0c-3.1658535 0 -5.7322845 -2.5664368 -5.7322845 -5.7322845z" fill-rule="evenodd"/><path fill="#783f04" d="m19.822409 72.5712l0 0c0 -1.9221268 1.5581894 -3.4803162 3.4803143 -3.4803162l0 0c0.9230385 0 1.8082695 0.36667633 2.4609547 1.0193558c0.6526871 0.6526871 1.0193615 1.5379181 1.0193615 2.4609604l0 0c0 1.9221191 -1.5581894 3.4803085 -3.4803162 3.4803085l0 0c-1.9221249 0 -3.4803143 -1.5581894 -3.4803143 -3.4803085z" fill-rule="evenodd"/><path fill="#b45f06" d="m58.43485 63.97019l0 0c0 -3.1658516 2.5664291 -5.7322845 5.7322807 -5.7322845l0 0c1.5203018 0 2.978325 0.60393524 4.053337 1.6789474c1.0750122 1.0750122 1.6789474 2.533043 1.6789474 4.053337l0 0c0 3.1658516 -2.5664291 5.7322807 -5.7322845 5.7322807l0 0c-3.1658516 0 -5.7322807 -2.5664291 -5.7322807 -5.7322807z" fill-rule="evenodd"/><path stroke="#783f04" stroke-width="2.0" stroke-linejoin="round" stroke-linecap="butt" d="m58.43485 63.97019l0 0c0 -3.1658516 2.5664291 -5.7322845 5.7322807 -5.7322845l0 0c1.5203018 0 2.978325 0.60393524 4.053337 1.6789474c1.0750122 1.0750122 1.6789474 2.533043 1.6789474 4.053337l0 0c0 3.1658516 -2.5664291 5.7322807 -5.7322845 5.7322807l0 0c-3.1658516 0 -5.7322807 -2.5664291 -5.7322807 -5.7322807z" fill-rule="evenodd"/><path fill="#783f04" d="m60.70027 63.983753l0 0c0 -1.922123 1.5581894 -3.4803123 3.4803162 -3.4803123l0 0c0.92303467 0 1.8082657 0.36667252 2.4609528 1.0193596c0.6526871 0.65268326 1.0193634 1.5379181 1.0193634 2.4609528l0 0c0 1.922123 -1.5581894 3.4803123 -3.4803162 3.4803123l0 0c-1.9221268 0 -3.4803162 -1.5581894 -3.4803162 -3.4803123z" fill-rule="evenodd"/><path fill="#b45f06" d="m58.43485 81.14452l0 0c0 -3.1658554 2.5664291 -5.7322845 5.7322807 -5.7322845l0 0c1.5203018 0 2.978325 0.60393524 4.053337 1.6789474c1.0750122 1.0750122 1.6789474 2.5330353 1.6789474 4.053337l0 0c0 3.1658478 -2.5664291 5.7322845 -5.7322845 5.7322845l0 0c-3.1658516 0 -5.7322807 -2.5664368 -5.7322807 -5.7322845z" fill-rule="evenodd"/><path stroke="#783f04" stroke-width="2.0" stroke-linejoin="round" stroke-linecap="butt" d="m58.43485 81.14452l0 0c0 -3.1658554 2.5664291 -5.7322845 5.7322807 -5.7322845l0 0c1.5203018 0 2.978325 0.60393524 4.053337 1.6789474c1.0750122 1.0750122 1.6789474 2.5330353 1.6789474 4.053337l0 0c0 3.1658478 -2.5664291 5.7322845 -5.7322845 5.7322845l0 0c-3.1658516 0 -5.7322807 -2.5664368 -5.7322807 -5.7322845z" fill-rule="evenodd"/><path fill="#783f04" d="m60.70027 81.15864l0 0c0 -1.9221268 1.5581894 -3.4803162 3.4803162 -3.4803162l0 0c0.92303467 0 1.8082657 0.36667633 2.4609528 1.0193558c0.6526871 0.6526871 1.0193634 1.5379181 1.0193634 2.4609604l0 0c0 1.9221191 -1.5581894 3.4803085 -3.4803162 3.4803085l0 0c-1.9221268 0 -3.4803162 -1.5581894 -3.4803162 -3.4803085z" fill-rule="evenodd"/><path fill="#b45f06" d="m75.52195 81.14608l0 0c0 -3.1658554 2.5664291 -5.7322845 5.7322845 -5.7322845l0 0c1.5202942 0 2.978325 0.60393524 4.053337 1.6789474c1.0750122 1.0750122 1.6789474 2.5330353 1.6789474 4.053337l0 0c0 3.1658478 -2.5664291 5.7322845 -5.7322845 5.7322845l0 0c-3.1658554 0 -5.7322845 -2.5664368 -5.7322845 -5.7322845z" fill-rule="evenodd"/><path stroke="#783f04" stroke-width="2.0" stroke-linejoin="round" stroke-linecap="butt" d="m75.52195 81.14608l0 0c0 -3.1658554 2.5664291 -5.7322845 5.7322845 -5.7322845l0 0c1.5202942 0 2.978325 0.60393524 4.053337 1.6789474c1.0750122 1.0750122 1.6789474 2.5330353 1.6789474 4.053337l0 0c0 3.1658478 -2.5664291 5.7322845 -5.7322845 5.7322845l0 0c-3.1658554 0 -5.7322845 -2.5664368 -5.7322845 -5.7322845z" fill-rule="evenodd"/><path fill="#783f04" d="m77.78786 81.160194l0 0c0 -1.9221268 1.5581894 -3.4803162 3.4803162 -3.4803162l0 0c0.9230423 0 1.8082733 0.36667633 2.4609528 1.0193558c0.6526871 0.6526871 1.0193634 1.5379181 1.0193634 2.4609604l0 0c0 1.9221191 -1.5581894 3.4803085 -3.4803162 3.4803085l0 0c-1.9221268 0 -3.4803162 -1.5581894 -3.4803162 -3.4803085z" fill-rule="evenodd"/><path fill="#b45f06" d="m75.51853 63.97019l0 0c0 -3.1658516 2.5664291 -5.7322845 5.7322845 -5.7322845l0 0c1.5202942 0 2.978325 0.60393524 4.053337 1.6789474c1.0750122 1.0750122 1.6789474 2.533043 1.6789474 4.053337l0 0c0 3.1658516 -2.5664291 5.7322807 -5.7322845 5.7322807l0 0c-3.1658554 0 -5.7322845 -2.5664291 -5.7322845 -5.7322807z" fill-rule="evenodd"/><path stroke="#783f04" stroke-width="2.0" stroke-linejoin="round" stroke-linecap="butt" d="m75.51853 63.97019l0 0c0 -3.1658516 2.5664291 -5.7322845 5.7322845 -5.7322845l0 0c1.5202942 0 2.978325 0.60393524 4.053337 1.6789474c1.0750122 1.0750122 1.6789474 2.533043 1.6789474 4.053337l0 0c0 3.1658516 -2.5664291 5.7322807 -5.7322845 5.7322807l0 0c-3.1658554 0 -5.7322845 -2.5664291 -5.7322845 -5.7322807z" fill-rule="evenodd"/><path fill="#783f04" d="m77.78444 63.983753l0 0c0 -1.922123 1.5581894 -3.4803123 3.4803162 -3.4803123l0 0c0.92303467 0 1.8082657 0.36667252 2.4609528 1.0193596c0.6526871 0.65268326 1.0193634 1.5379181 1.0193634 2.4609528l0 0c0 1.922123 -1.5581894 3.4803123 -3.4803162 3.4803123l0 0c-1.9221268 0 -3.4803162 -1.5581894 -3.4803162 -3.4803123z" fill-rule="evenodd"/><path fill="#b45f06" d="m66.97645 72.55708l0 0c0 -3.1658554 2.5664291 -5.7322845 5.7322845 -5.7322845l0 0c1.5202942 0 2.978325 0.60393524 4.053337 1.6789474c1.0750122 1.0750122 1.6789474 2.5330353 1.6789474 4.053337l0 0c0 3.1658478 -2.5664368 5.7322845 -5.7322845 5.7322845l0 0c-3.1658554 0 -5.7322845 -2.5664368 -5.7322845 -5.7322845z" fill-rule="evenodd"/><path stroke="#783f04" stroke-width="2.0" stroke-linejoin="round" stroke-linecap="butt" d="m66.97645 72.55708l0 0c0 -3.1658554 2.5664291 -5.7322845 5.7322845 -5.7322845l0 0c1.5202942 0 2.978325 0.60393524 4.053337 1.6789474c1.0750122 1.0750122 1.6789474 2.5330353 1.6789474 4.053337l0 0c0 3.1658478 -2.5664368 5.7322845 -5.7322845 5.7322845l0 0c-3.1658554 0 -5.7322845 -2.5664368 -5.7322845 -5.7322845z" fill-rule="evenodd"/><path fill="#783f04" d="m69.242355 72.5712l0 0c0 -1.9221268 1.5581894 -3.4803162 3.4803162 -3.4803162l0 0c0.92303467 0 1.8082657 0.36667633 2.4609528 1.0193558c0.6526871 0.6526871 1.0193634 1.5379181 1.0193634 2.4609604l0 0c0 1.9221191 -1.5581894 3.4803085 -3.4803162 3.4803085l0 0c-1.9221268 0 -3.4803162 -1.5581894 -3.4803162 -3.4803085z" fill-rule="evenodd"/><defs><radialGradient id="multiHatchBlue.1" gradientUnits="userSpaceOnUse" gradientTransform="matrix(7.600735617199969 0.0 0.0 7.600735617199969 0.0 0.0)" spreadMethod="pad" cx="13.82417578261352" cy="2.8057644453547077" fx="13.82417578261352" fy="2.8057644453547077" r="7.600735664367676"><stop offset="0.0" stop-color="#ff1515"/><stop offset="0.26" stop-color="#e71e1e"/><stop offset="1.0" stop-color="#c31b1b"/></radialGradient></defs><path fill="url(#multiHatchBlue.1)" d="m105.073906 41.751072l0 0c0 -11.280525 9.144669 -20.425198 20.425194 -20.425198l0 0c5.417099 0 10.612335 2.1519337 14.442795 5.982401c3.8304749 3.8304672 5.9824066 9.025698 5.9824066 14.442797l0 0c0 11.280525 -9.144669 20.425194 -20.425201 20.425194l0 0c-11.280525 0 -20.425194 -9.144669 -20.425194 -20.425194z" fill-rule="evenodd"/><path stroke="#990000" stroke-width="2.0" stroke-linejoin="round" stroke-linecap="butt" d="m105.073906 41.751072l0 0c0 -11.280525 9.144669 -20.425198 20.425194 -20.425198l0 0c5.417099 0 10.612335 2.1519337 14.442795 5.982401c3.8304749 3.8304672 5.9824066 9.025698 5.9824066 14.442797l0 0c0 11.280525 -9.144669 20.425194 -20.425201 20.425194l0 0c-11.280525 0 -20.425194 -9.144669 -20.425194 -20.425194z" fill-rule="evenodd"/><defs><radialGradient id="multiHatchBlue.2" gradientUnits="userSpaceOnUse" gradientTransform="matrix(7.600735617199969 0.0 0.0 7.600735617199969 0.0 0.0)" spreadMethod="pad" cx="3.6279669461072843" cy="3.6279669461072848" fx="3.6279669461072843" fy="3.6279669461072848" r="7.600735664367676"><stop offset="0.0" stop-color="#4545de"/><stop offset="0.26" stop-color="#4f4fd9"/><stop offset="1.0" stop-color="#5a5ab5"/></radialGradient></defs><path fill="url(#multiHatchBlue.2)" d="m27.575218 48.000416l0 0c0 -11.280525 9.144672 -20.425198 20.425198 -20.425198l0 0c5.417099 0 10.612328 2.1519337 14.442795 5.982403c3.8304634 3.8304672 5.982403 9.025696 5.982403 14.442795l0 0c0 11.280525 -9.144672 20.425198 -20.425198 20.425198l0 0c-11.280525 0 -20.425198 -9.144672 -20.425198 -20.425198z" fill-rule="evenodd"/><path stroke="#4e4e89" stroke-width="2.0" stroke-linejoin="round" stroke-linecap="butt" d="m27.575218 48.000416l0 0c0 -11.280525 9.144672 -20.425198 20.425198 -20.425198l0 0c5.417099 0 10.612328 2.1519337 14.442795 5.982403c3.8304634 3.8304672 5.982403 9.025696 5.982403 14.442795l0 0c0 11.280525 -9.144672 20.425198 -20.425198 20.425198l0 0c-11.280525 0 -20.425198 -9.144672 -20.425198 -20.425198z" fill-rule="evenodd"/><path fill="#ffff00" fill-opacity="0.7233" d="m-110.25722 62.582676l0 0c0 -19.334312 15.673561 -35.007874 35.007874 -35.007874l0 0c9.284668 0 18.189056 3.6883202 24.754307 10.253571c6.5652466 6.5652504 10.253567 15.469639 10.253567 24.754303l0 0c0 19.334316 -15.673557 35.007877 -35.007874 35.007877l0 0c-19.334312 0 -35.007874 -15.673561 -35.007874 -35.007877z" fill-rule="evenodd"/></g></svg>