<svg version="1.1" viewBox="0.0 0.0 96.0 96.0" fill="none" stroke="none" stroke-linecap="square" stroke-miterlimit="10" xmlns:xlink="http://www.w3.org/1999/xlink" xmlns="http://www.w3.org/2000/svg"><clipPath id="node2Red0"><path d="m0 0l96.0 0l0 96.0l-96.0 0l0 -96.0z" clip-rule="nonzero"/></clipPath><g clip-path="url(#node2Red0)"><path fill="#000000" fill-opacity="0.0" d="m0 0l96.0 0l0 96.0l-96.0 0z" fill-rule="evenodd"/><defs><radialGradient id="node2Red1" gradientUnits="userSpaceOnUse" gradientTransform="matrix(10.757347905347903 0.0 0.0 10.757347905347903 0.0 0.0)" spreadMethod="pad" cx="0.6587724427349161" cy="0.658772442734917" fx="0.6587724427349161" fy="0.658772442734917" r="10.75734806060791"><stop offset="0.0" stop-color="#ff1515"/><stop offset="0.26" stop-color="#e71e1e"/><stop offset="1.0" stop-color="#c31b1b"/></radialGradient></defs><path fill="url(#node2Red1)" d="m7.086644 48.00003l0 0c0 -22.595839 18.317547 -40.913387 40.913387 -40.913387l0 0c10.850903 0 21.257385 4.310505 28.93013 11.983253c7.6727524 7.6727486 11.9832535 18.079227 11.9832535 28.930134l0 0c0 22.59584 -18.317543 40.913383 -40.913383 40.913383l0 0c-22.595839 0 -40.913387 -18.317543 -40.913387 -40.913383z" fill-rule="evenodd"/><path stroke="#990000" stroke-width="2.0" stroke-linejoin="round" stroke-linecap="butt" d="m7.086644 48.00003l0 0c0 -22.595839 18.317547 -40.913387 40.913387 -40.913387l0 0c10.850903 0 21.257385 4.310505 28.93013 11.983253c7.6727524 7.6727486 11.9832535 18.079227 11.9832535 28.930134l0 0c0 22.59584 -18.317543 40.913383 -40.913383 40.913383l0 0c-22.595839 0 -40.913387 -18.317543 -40.913387 -40.913383z" fill-rule="evenodd"/></g></svg>