<svg version="1.1" viewBox="0.0 0.0 96.0 96.0" fill="none" stroke="none" stroke-linecap="square" stroke-miterlimit="10" xmlns:xlink="http://www.w3.org/1999/xlink" xmlns="http://www.w3.org/2000/svg"><clipPath id="nodeBlue.0"><path d="m0 0l96.0 0l0 96.0l-96.0 0l0 -96.0z" clip-rule="nonzero"/></clipPath><g clip-path="url(#nodeBlue.0)"><path fill="#000000" fill-opacity="0.0" d="m0 0l96.0 0l0 96.0l-96.0 0z" fill-rule="evenodd"/><defs><radialGradient id="nodeBlue.1" gradientUnits="userSpaceOnUse" gradientTransform="matrix(7.600735617199969 0.0 0.0 7.600735617199969 0.0 0.0)" spreadMethod="pad" cx="19.48152293499885" cy="5.966461416958377" fx="19.48152293499885" fy="5.966461416958377" r="7.600735664367676"><stop offset="0.0" stop-color="#ff1515"/><stop offset="0.26" stop-color="#e71e1e"/><stop offset="1.0" stop-color="#c31b1b"/></radialGradient></defs><path fill="url(#nodeBlue.1)" d="m148.0739 65.7747l0 0c0 -11.280529 9.144684 -20.425201 20.425201 -20.425201l0 0c5.417099 0 10.612335 2.1519356 14.442795 5.982403c3.8304749 3.8304672 5.9824066 9.025696 5.9824066 14.442799l0 0c0 11.280518 -9.144669 20.425194 -20.425201 20.425194l0 0c-11.280518 0 -20.425201 -9.144676 -20.425201 -20.425194z" fill-rule="evenodd"/><path stroke="#990000" stroke-width="2.0" stroke-linejoin="round" stroke-linecap="butt" d="m148.0739 65.7747l0 0c0 -11.280529 9.144684 -20.425201 20.425201 -20.425201l0 0c5.417099 0 10.612335 2.1519356 14.442795 5.982403c3.8304749 3.8304672 5.9824066 9.025696 5.9824066 14.442799l0 0c0 11.280518 -9.144669 20.425194 -20.425201 20.425194l0 0c-11.280518 0 -20.425201 -9.144676 -20.425201 -20.425194z" fill-rule="evenodd"/><defs><radialGradient id="nodeBlue.2" gradientUnits="userSpaceOnUse" gradientTransform="matrix(11.65180231600614 0.0 0.0 11.65180231600614 0.0 0.0)" spreadMethod="pad" cx="1.0204227170959101E-5" cy="1.020422717195822E-5" fx="1.0204227170959101E-5" fy="1.020422717195822E-5" r="11.651802062988281"><stop offset="0.0" stop-color="#4545de"/><stop offset="0.26" stop-color="#4f4fd9"/><stop offset="1.0" stop-color="#5a5ab5"/></radialGradient></defs><path fill="url(#nodeBlue.2)" d="m1.1889764E-4 48.00012l0 0c0 -26.509666 21.490334 -48.0 48.0 -48.0l0 0c12.730392 0 24.93938 5.0571284 33.941128 14.058874c9.001747 9.001746 14.058876 21.210732 14.058876 33.941124l0 0c0 26.50967 -21.490334 48.000004 -48.000004 48.000004l0 0c-26.509666 0 -48.0 -21.490334 -48.0 -48.000004z" fill-rule="evenodd"/><path stroke="#4e4e89" stroke-width="2.0" stroke-linejoin="round" stroke-linecap="butt" d="m1.1889764E-4 48.00012l0 0c0 -26.509666 21.490334 -48.0 48.0 -48.0l0 0c12.730392 0 24.93938 5.0571284 33.941128 14.058874c9.001747 9.001746 14.058876 21.210732 14.058876 33.941124l0 0c0 26.50967 -21.490334 48.000004 -48.000004 48.000004l0 0c-26.509666 0 -48.0 -21.490334 -48.0 -48.000004z" fill-rule="evenodd"/></g></svg>