<svg version="1.1" viewBox="0.0 0.0 96.0 96.0" fill="none" stroke="none" stroke-linecap="square" stroke-miterlimit="10" xmlns:xlink="http://www.w3.org/1999/xlink" xmlns="http://www.w3.org/2000/svg"><clipPath id="nodeRed0"><path d="m0 0l96.0 0l0 96.0l-96.0 0l0 -96.0z" clip-rule="nonzero"/></clipPath><g clip-path="url(#nodeRed0)"><path fill="#000000" fill-opacity="0.0" d="m0 0l96.0 0l0 96.0l-96.0 0z" fill-rule="evenodd"/><defs><radialGradient id="nodeRed1" gradientUnits="userSpaceOnUse" gradientTransform="matrix(11.65180231600614 0.0 0.0 11.65180231600614 0.0 0.0)" spreadMethod="pad" cx="-4.9511901378403464E-5" cy="-4.750709736348761E-5" fx="-4.9511901378403464E-5" fy="-4.750709736348761E-5" r="11.651802062988281"><stop offset="0.0" stop-color="#ff1515"/><stop offset="0.26" stop-color="#e71e1e"/><stop offset="1.0" stop-color="#c31b1b"/></radialGradient></defs><path fill="url(#nodeRed1)" d="m-5.769029E-4 47.999447l0 0c0 -26.509668 21.490332 -48.0 48.0 -48.0l0 0c12.730392 0 24.93938 5.0571284 33.941128 14.058874c9.0017395 9.001745 14.058868 21.210733 14.058868 33.941124l0 0c0 26.50967 -21.490326 47.999996 -47.999996 47.999996l0 0c-26.509668 0 -48.0 -21.490326 -48.0 -47.999996z" fill-rule="evenodd"/><path stroke="#990000" stroke-width="2.0" stroke-linejoin="round" stroke-linecap="butt" d="m-5.769029E-4 47.999447l0 0c0 -26.509668 21.490332 -48.0 48.0 -48.0l0 0c12.730392 0 24.93938 5.0571284 33.941128 14.058874c9.0017395 9.001745 14.058868 21.210733 14.058868 33.941124l0 0c0 26.50967 -21.490326 47.999996 -47.999996 47.999996l0 0c-26.509668 0 -48.0 -21.490326 -48.0 -47.999996z" fill-rule="evenodd"/></g></svg>