<svg version="1.1" viewBox="0.0 0.0 96.0 96.0" fill="none" stroke="none" stroke-linecap="square" stroke-miterlimit="10" xmlns:xlink="http://www.w3.org/1999/xlink" xmlns="http://www.w3.org/2000/svg"><clipPath id="node2Blue.0"><path d="m0 0l96.0 0l0 96.0l-96.0 0l0 -96.0z" clip-rule="nonzero"/></clipPath><g clip-path="url(#node2Blue.0)"><path fill="#000000" fill-opacity="0.0" d="m0 0l96.0 0l0 96.0l-96.0 0z" fill-rule="evenodd"/><defs><radialGradient id="node2Blue.1" gradientUnits="userSpaceOnUse" gradientTransform="matrix(7.600735617199969 0.0 0.0 7.600735617199969 0.0 0.0)" spreadMethod="pad" cx="21.455016127691408" cy="14.189177060772057" fx="21.455016127691408" fy="14.189177060772057" r="7.600735664367676"><stop offset="0.0" stop-color="#ff1515"/><stop offset="0.26" stop-color="#e71e1e"/><stop offset="1.0" stop-color="#c31b1b"/></radialGradient></defs><path fill="url(#node2Blue.1)" d="m163.0739 128.27338l0 0c0 -11.280518 9.144684 -20.425194 20.425201 -20.425194l0 0c5.417099 0 10.612335 2.1519318 14.442795 5.982399c3.8304749 3.8304672 5.9824066 9.025703 5.9824066 14.442795l0 0c0 11.280533 -9.144669 20.425201 -20.425201 20.425201l0 0c-11.280518 0 -20.425201 -9.144669 -20.425201 -20.425201z" fill-rule="evenodd"/><path stroke="#990000" stroke-width="2.0" stroke-linejoin="round" stroke-linecap="butt" d="m163.0739 128.27338l0 0c0 -11.280518 9.144684 -20.425194 20.425201 -20.425194l0 0c5.417099 0 10.612335 2.1519318 14.442795 5.982399c3.8304749 3.8304672 5.9824066 9.025703 5.9824066 14.442795l0 0c0 11.280533 -9.144669 20.425201 -20.425201 20.425201l0 0c-11.280518 0 -20.425201 -9.144669 -20.425201 -20.425201z" fill-rule="evenodd"/><defs><radialGradient id="node2Blue.2" gradientUnits="userSpaceOnUse" gradientTransform="matrix(10.757347905347903 0.0 0.0 10.757347905347903 0.0 0.0)" spreadMethod="pad" cx="0.6587745166393285" cy="0.6587745166393294" fx="0.6587745166393285" fy="0.6587745166393294" r="10.75734806060791"><stop offset="0.0" stop-color="#4545de"/><stop offset="0.26" stop-color="#4f4fd9"/><stop offset="1.0" stop-color="#5a5ab5"/></radialGradient></defs><path fill="url(#node2Blue.2)" d="m7.0866666 48.000053l0 0c0 -22.59584 18.317547 -40.913387 40.913387 -40.913387l0 0c10.850903 0 21.257385 4.3105054 28.93013 11.9832535c7.6727524 7.6727486 11.9832535 18.079227 11.9832535 28.930134l0 0c0 22.59584 -18.317543 40.913383 -40.913383 40.913383l0 0c-22.59584 0 -40.913387 -18.317543 -40.913387 -40.913383z" fill-rule="evenodd"/><path stroke="#4e4e89" stroke-width="2.0" stroke-linejoin="round" stroke-linecap="butt" d="m7.0866666 48.000053l0 0c0 -22.59584 18.317547 -40.913387 40.913387 -40.913387l0 0c10.850903 0 21.257385 4.3105054 28.93013 11.9832535c7.6727524 7.6727486 11.9832535 18.079227 11.9832535 28.930134l0 0c0 22.59584 -18.317543 40.913383 -40.913383 40.913383l0 0c-22.59584 0 -40.913387 -18.317543 -40.913387 -40.913383z" fill-rule="evenodd"/></g></svg>