<svg version="1.1" viewBox="0.0 0.0 96.0 96.0" fill="none" stroke="none" stroke-linecap="square" stroke-miterlimit="10" xmlns:xlink="http://www.w3.org/1999/xlink" xmlns="http://www.w3.org/2000/svg"><clipPath id="p.0"><path d="m0 0l96.0 0l0 96.0l-96.0 0l0 -96.0z" clip-rule="nonzero"/></clipPath><g clip-path="url(#p.0)"><path fill="#000000" fill-opacity="0.0" d="m0 0l96.0 0l0 96.0l-96.0 0z" fill-rule="evenodd"/><path fill="#f9cb9c" d="m0 0l96.0 0l0 96.0l-96.0 0z" fill-rule="evenodd"/><path fill="#783f04" d="m24.814127 62.401066l0 0c0 -4.948818 4.0118103 -8.9606285 8.96063 -8.9606285q8.9606285 0 17.921257 -8.960632q-8.9606285 8.960632 -8.9606285 17.92126l0 0c0 4.948818 -4.0118103 8.9606285 -8.9606285 8.9606285l0 0c-4.94882 0 -8.96063 -4.0118103 -8.96063 -8.9606285z" fill-rule="evenodd"/><path stroke="#b45f06" stroke-width="2.0" stroke-linejoin="round" stroke-linecap="butt" d="m24.814127 62.401066l0 0c0 -4.948818 4.0118103 -8.9606285 8.96063 -8.9606285q8.9606285 0 17.921257 -8.960632q-8.9606285 8.960632 -8.9606285 17.92126l0 0c0 4.948818 -4.0118103 8.9606285 -8.9606285 8.9606285l0 0c-4.94882 0 -8.96063 -4.0118103 -8.96063 -8.9606285z" fill-rule="evenodd"/><path fill="#783f04" d="m71.18516 33.59873l0 0c0 4.948818 -4.0118103 8.9606285 -8.9606285 8.9606285q-8.960632 0 -17.92126 8.960632q8.9606285 -8.960632 8.9606285 -17.92126l0 0c0 -4.94882 4.0118103 -8.96063 8.960632 -8.96063l0 0c4.948818 0 8.9606285 4.0118103 8.9606285 8.96063z" fill-rule="evenodd"/><path stroke="#b45f06" stroke-width="2.0" stroke-linejoin="round" stroke-linecap="butt" d="m71.18516 33.59873l0 0c0 4.948818 -4.0118103 8.9606285 -8.9606285 8.9606285q-8.960632 0 -17.92126 8.960632q8.9606285 -8.960632 8.9606285 -17.92126l0 0c0 -4.94882 4.0118103 -8.96063 8.960632 -8.96063l0 0c4.948818 0 8.9606285 4.0118103 8.9606285 8.96063z" fill-rule="evenodd"/><path fill="#783f04" d="m62.397568 71.18541l0 0c-4.948818 0 -8.9606285 -4.0118103 -8.9606285 -8.9606285q0 -8.9606285 -8.9606285 -17.921257q8.9606285 8.9606285 17.921257 8.9606285l0 0c4.948822 0 8.960632 4.0118103 8.960632 8.9606285l0 0c0 4.948818 -4.0118103 8.9606285 -8.960632 8.9606285z" fill-rule="evenodd"/><path stroke="#b45f06" stroke-width="2.0" stroke-linejoin="round" stroke-linecap="butt" d="m62.397568 71.18541l0 0c-4.948818 0 -8.9606285 -4.0118103 -8.9606285 -8.9606285q0 -8.9606285 -8.9606285 -17.921257q8.9606285 8.9606285 17.921257 8.9606285l0 0c4.948822 0 8.960632 4.0118103 8.960632 8.9606285l0 0c0 4.948818 -4.0118103 8.9606285 -8.960632 8.9606285z" fill-rule="evenodd"/><path fill="#783f04" d="m33.59523 24.814383l0 0c4.948818 0 8.960632 4.0118103 8.960632 8.96063q0 8.9606285 8.9606285 17.921257q-8.9606285 -8.9606285 -17.92126 -8.9606285l0 0c-4.948818 0 -8.9606285 -4.0118103 -8.9606285 -8.9606285l0 0c0 -4.94882 4.0118103 -8.96063 8.9606285 -8.96063z" fill-rule="evenodd"/><path stroke="#b45f06" stroke-width="2.0" stroke-linejoin="round" stroke-linecap="butt" d="m33.59523 24.814383l0 0c4.948818 0 8.960632 4.0118103 8.960632 8.96063q0 8.9606285 8.9606285 17.921257q-8.9606285 -8.9606285 -17.92126 -8.9606285l0 0c-4.948818 0 -8.9606285 -4.0118103 -8.9606285 -8.9606285l0 0c0 -4.94882 4.0118103 -8.96063 8.9606285 -8.96063z" fill-rule="evenodd"/><path fill="#b45f06" d="m15.43985 40.395565l0 0c4.287817 -4.287815 11.239742 -4.287815 15.527559 0q7.7637806 7.7637787 23.291338 7.7637787q-15.527557 0 -23.291338 7.7637787l0 0c-4.287817 4.287819 -11.239742 4.287819 -15.527559 0l0 0c-4.287817 -4.287815 -4.287817 -11.239738 0 -15.527557z" fill-rule="evenodd"/><path stroke="#783f04" stroke-width="2.0" stroke-linejoin="round" stroke-linecap="butt" d="m15.43985 40.395565l0 0c4.287817 -4.287815 11.239742 -4.287815 15.527559 0q7.7637806 7.7637787 23.291338 7.7637787q-15.527557 0 -23.291338 7.7637787l0 0c-4.287817 4.287819 -11.239742 4.287819 -15.527559 0l0 0c-4.287817 -4.287815 -4.287817 -11.239738 0 -15.527557z" fill-rule="evenodd"/><path fill="#b45f06" d="m80.55979 55.60978l0 0c-4.2878113 4.287819 -11.239738 4.287819 -15.527557 0q-7.7637787 -7.7637787 -23.291336 -7.7637787q15.527557 0 23.291336 -7.7637787l0 0c4.287819 -4.287819 11.239746 -4.287819 15.527557 0l0 0c4.287819 4.287815 4.287819 11.239742 0 15.527557z" fill-rule="evenodd"/><path stroke="#783f04" stroke-width="2.0" stroke-linejoin="round" stroke-linecap="butt" d="m80.55979 55.60978l0 0c-4.2878113 4.287819 -11.239738 4.287819 -15.527557 0q-7.7637787 -7.7637787 -23.291336 -7.7637787q15.527557 0 23.291336 -7.7637787l0 0c4.287819 -4.287819 11.239746 -4.287819 15.527557 0l0 0c4.287819 4.287815 4.287819 11.239742 0 15.527557z" fill-rule="evenodd"/><path fill="#b45f06" d="m40.389908 80.55984l0 0c-4.287819 -4.287819 -4.287819 -11.239746 0 -15.527557q7.7637787 -7.7637825 7.7637787 -23.291344q0 15.527561 7.7637787 23.291344l0 0c4.287819 4.2878113 4.287819 11.239738 0 15.527557l0 0c-4.287815 4.287819 -11.239742 4.287819 -15.527557 0z" fill-rule="evenodd"/><path stroke="#783f04" stroke-width="2.0" stroke-linejoin="round" stroke-linecap="butt" d="m40.389908 80.55984l0 0c-4.287819 -4.287819 -4.287819 -11.239746 0 -15.527557q7.7637787 -7.7637825 7.7637787 -23.291344q0 15.527561 7.7637787 23.291344l0 0c4.287819 4.2878113 4.287819 11.239738 0 15.527557l0 0c-4.287815 4.287819 -11.239742 4.287819 -15.527557 0z" fill-rule="evenodd"/><path fill="#b45f06" d="m55.604122 15.439892l0 0c4.287815 4.287817 4.287815 11.239742 0 15.527559q-7.7637825 7.7637806 -7.7637825 23.291338q0 -15.527557 -7.7637787 -23.291338l0 0c-4.287815 -4.287817 -4.287815 -11.239742 0 -15.527559l0 0c4.287819 -4.287817 11.239742 -4.287817 15.527561 0z" fill-rule="evenodd"/><path stroke="#783f04" stroke-width="2.0" stroke-linejoin="round" stroke-linecap="butt" d="m55.604122 15.439892l0 0c4.287815 4.287817 4.287815 11.239742 0 15.527559q-7.7637825 7.7637806 -7.7637825 23.291338q0 -15.527557 -7.7637787 -23.291338l0 0c-4.287815 -4.287817 -4.287815 -11.239742 0 -15.527559l0 0c4.287819 -4.287817 11.239742 -4.287817 15.527561 0z" fill-rule="evenodd"/><path fill="#e69138" d="m40.915356 48.006184l0 0c0 -3.9138298 3.172783 -7.0866127 7.0866127 -7.0866127l0 0c1.8794861 0 3.6819954 0.746624 5.010994 2.0756187c1.3289986 1.3289986 2.0756187 3.1315079 2.0756187 5.010994l0 0c0 3.9138298 -3.172783 7.0866165 -7.0866127 7.0866165l0 0c-3.9138298 0 -7.0866127 -3.1727867 -7.0866127 -7.0866165z" fill-rule="evenodd"/><path stroke="#783f04" stroke-width="2.0" stroke-linejoin="round" stroke-linecap="butt" d="m40.915356 48.006184l0 0c0 -3.9138298 3.172783 -7.0866127 7.0866127 -7.0866127l0 0c1.8794861 0 3.6819954 0.746624 5.010994 2.0756187c1.3289986 1.3289986 2.0756187 3.1315079 2.0756187 5.010994l0 0c0 3.9138298 -3.172783 7.0866165 -7.0866127 7.0866165l0 0c-3.9138298 0 -7.0866127 -3.1727867 -7.0866127 -7.0866165z" fill-rule="evenodd"/><path fill="#e69138" d="m42.163544 23.207542l0 0c0 -3.139761 2.5452805 -5.6850395 5.6850395 -5.6850395l0 0c1.5077667 0 2.9537811 0.59895706 4.019932 1.6651096c1.0661507 1.0661507 1.6651077 2.5121632 1.6651077 4.01993l0 0c0 3.139761 -2.5452766 5.6850395 -5.6850395 5.6850395l0 0c-3.139759 0 -5.6850395 -2.5452785 -5.6850395 -5.6850395z" fill-rule="evenodd"/><path fill="#e69138" d="m66.97344 47.855324l0 0c0 -3.139759 2.5452805 -5.6850395 5.6850357 -5.6850395l0 0c1.5077667 0 2.9537811 0.59895706 4.0199356 1.6651115c1.0661469 1.0661507 1.6651077 2.5121613 1.6651077 4.019928l0 0c0 3.1397629 -2.5452805 5.6850395 -5.6850433 5.6850395l0 0c-3.1397552 0 -5.6850357 -2.5452766 -5.6850357 -5.6850395z" fill-rule="evenodd"/><path fill="#e69138" d="m17.658422 48.1601l0 0c0 -3.1397629 2.5452785 -5.6850395 5.6850395 -5.6850395l0 0c1.5077667 0 2.9537792 0.59895706 4.01993 1.6651077c1.0661526 1.0661545 1.6651096 2.512165 1.6651096 4.019932l0 0c0 3.139759 -2.5452785 5.6850395 -5.6850395 5.6850395l0 0c-3.139761 0 -5.6850395 -2.5452805 -5.6850395 -5.6850395z" fill-rule="evenodd"/><path fill="#e69138" d="m42.46832 72.8014l0 0c0 -3.1397629 2.5452805 -5.6850433 5.6850395 -5.6850433l0 0c1.5077667 0 2.9537773 0.5989609 4.019932 1.6651077c1.0661507 1.0661545 1.6651077 2.512169 1.6651077 4.0199356l0 0c0 3.1397552 -2.5452805 5.6850357 -5.6850395 5.6850357l0 0c-3.139759 0 -5.6850395 -2.5452805 -5.6850395 -5.6850357z" fill-rule="evenodd"/><path fill="#b45f06" d="m59.547493 29.728033l0 0c1.8873367 -1.8873367 4.9473114 -1.8873367 6.834648 0l0 0c0.9063263 0.9063301 1.4155045 2.1355782 1.4155045 3.4173222c0 1.2817459 -0.50917816 2.510994 -1.4155045 3.417324l0 0c-1.8873367 1.8873329 -4.9473114 1.8873329 -6.834648 0l0 0c-1.8873329 -1.8873367 -1.8873329 -4.9473114 0 -6.834646z" fill-rule="evenodd"/><path fill="#b45f06" d="m59.644943 59.4583l0 0c1.8873367 -1.8873329 4.9473114 -1.8873329 6.834648 0l0 0c0.9063263 0.9063339 1.4154968 2.1355782 1.4154968 3.417324c0 1.2817459 -0.50917053 2.510994 -1.4154968 3.4173203l0 0c-1.8873367 1.8873367 -4.9473114 1.8873367 -6.834648 0l0 0c-1.8873367 -1.8873291 -1.8873367 -4.9473076 0 -6.8346443z" fill-rule="evenodd"/><path fill="#b45f06" d="m29.818008 29.996996l0 0c1.8873348 -1.8873348 4.9473114 -1.8873348 6.8346443 0l0 0c0.9063301 0.9063301 1.4155045 2.13558 1.4155045 3.4173222c0 1.2817459 -0.50917435 2.510994 -1.4155045 3.417324l0 0c-1.8873329 1.8873367 -4.9473095 1.8873367 -6.8346443 0l0 0c-1.8873348 -1.8873367 -1.8873348 -4.9473095 0 -6.834646z" fill-rule="evenodd"/><path fill="#b45f06" d="m29.919353 59.72337l0 0c1.8873367 -1.8873367 4.9473114 -1.8873367 6.834648 0l0 0c0.9063301 0.9063301 1.4155006 2.1355782 1.4155006 3.417324c0 1.2817459 -0.50917053 2.510994 -1.4155006 3.4173203l0 0c-1.8873367 1.8873367 -4.9473114 1.8873367 -6.834648 0l0 0c-1.8873348 -1.8873367 -1.8873348 -4.9473076 0 -6.8346443z" fill-rule="evenodd"/><defs><radialGradient id="p.1" gradientUnits="userSpaceOnUse" gradientTransform="matrix(7.600735617199969 0.0 0.0 7.600735617199969 0.0 0.0)" spreadMethod="pad" cx="3.64799539845657" cy="3.607593175614046" fx="3.64799539845657" fy="3.607593175614046" r="7.600735664367676"><stop offset="0.0" stop-color="#ff1515"/><stop offset="0.26" stop-color="#e71e1e"/><stop offset="1.0" stop-color="#c31b1b"/></radialGradient></defs><path fill="url(#p.1)" d="m27.72745 47.84556l0 0c0 -11.280525 9.1446705 -20.425196 20.425196 -20.425196l0 0c5.417099 0 10.612328 2.1519337 14.442795 5.982401c3.830471 3.8304672 5.982403 9.025696 5.982403 14.442795l0 0c0 11.280525 -9.144672 20.425194 -20.425198 20.425194l0 0c-11.280525 0 -20.425196 -9.144669 -20.425196 -20.425194z" fill-rule="evenodd"/><path stroke="#990000" stroke-width="2.0" stroke-linejoin="round" stroke-linecap="butt" d="m27.72745 47.84556l0 0c0 -11.280525 9.1446705 -20.425196 20.425196 -20.425196l0 0c5.417099 0 10.612328 2.1519337 14.442795 5.982401c3.830471 3.8304672 5.982403 9.025696 5.982403 14.442795l0 0c0 11.280525 -9.144672 20.425194 -20.425198 20.425194l0 0c-11.280525 0 -20.425196 -9.144669 -20.425196 -20.425194z" fill-rule="evenodd"/><path fill="#ffff00" fill-opacity="0.7233" d="m13.146981 48.160107l0 0c0 -19.334316 15.67356 -35.007874 35.007874 -35.007874l0 0c9.284668 0 18.189056 3.6883183 24.75431 10.253569c6.5652466 6.5652504 10.253563 15.469639 10.253563 24.754307l0 0c0 19.334316 -15.673553 35.00787 -35.007874 35.00787l0 0c-19.334312 0 -35.007874 -15.673553 -35.007874 -35.00787z" fill-rule="evenodd"/></g></svg>