<svg version="1.1" viewBox="0.0 0.0 96.0 480.0" fill="none" stroke="none" stroke-linecap="square" stroke-miterlimit="10" xmlns:xlink="http://www.w3.org/1999/xlink" xmlns="http://www.w3.org/2000/svg"><clipPath id="p.0"><path d="m0 0l96.0 0l0 480.0l-96.0 0l0 -480.0z" clip-rule="nonzero"/></clipPath><g clip-path="url(#p.0)"><path fill="#000000" fill-opacity="0.0" d="m0 0l96.0 0l0 480.0l-96.0 0z" fill-rule="evenodd"/><defs><radialGradient id="p.1" gradientUnits="userSpaceOnUse" gradientTransform="matrix(7.619805023799611 0.0 0.0 7.619805023799611 0.0 0.0)" spreadMethod="pad" cx="3.6188331674471295" cy="28.789449353162002" fx="3.6188331674471295" fy="28.789449353162002" r="7.619804859161377"><stop offset="0.0" stop-color="#4545de"/><stop offset="0.26" stop-color="#4f4fd9"/><stop offset="1.0" stop-color="#5a5ab5"/></radialGradient></defs><path fill="url(#p.1)" d="m27.574802 239.99991l0 0c0 -11.393585 9.144672 -20.629913 20.425198 -20.629913l0 0c5.417099 0 10.612328 2.1734924 14.442795 6.0423584c3.8304672 3.868866 5.982399 9.116165 5.982399 14.587555l0 0c0 11.3936 -9.144669 20.629913 -20.425194 20.629913l0 0c-11.280525 0 -20.425198 -9.236313 -20.425198 -20.629913z" fill-rule="evenodd"/><path stroke="#4e4e89" stroke-width="2.0" stroke-linejoin="round" stroke-linecap="butt" d="m27.574802 239.99991l0 0c0 -11.393585 9.144672 -20.629913 20.425198 -20.629913l0 0c5.417099 0 10.612328 2.1734924 14.442795 6.0423584c3.8304672 3.868866 5.982399 9.116165 5.982399 14.587555l0 0c0 11.3936 -9.144669 20.629913 -20.425194 20.629913l0 0c-11.280525 0 -20.425198 -9.236313 -20.425198 -20.629913z" fill-rule="evenodd"/><defs><radialGradient id="p.2" gradientUnits="userSpaceOnUse" gradientTransform="matrix(7.619805023799611 0.0 0.0 7.619805023799611 0.0 0.0)" spreadMethod="pad" cx="19.28494313210189" cy="12.847384276740735" fx="19.28494313210189" fy="12.847384276740735" r="7.619804859161377"><stop offset="0.0" stop-color="#ff1515"/><stop offset="0.26" stop-color="#e71e1e"/><stop offset="1.0" stop-color="#c31b1b"/></radialGradient></defs><path fill="url(#p.2)" d="m146.94751 118.52448l0 0c0 -11.393593 9.144669 -20.629921 20.425186 -20.629921l0 0c5.417099 0 10.612335 2.1735077 14.44281 6.042366c3.8304596 3.8688583 5.9823914 9.116165 5.9823914 14.587555l0 0c0 11.393593 -9.144669 20.629921 -20.425201 20.629921l0 0c-11.280518 0 -20.425186 -9.236328 -20.425186 -20.629921z" fill-rule="evenodd"/><path stroke="#990000" stroke-width="2.0" stroke-linejoin="round" stroke-linecap="butt" d="m146.94751 118.52448l0 0c0 -11.393593 9.144669 -20.629921 20.425186 -20.629921l0 0c5.417099 0 10.612335 2.1735077 14.44281 6.042366c3.8304596 3.8688583 5.9823914 9.116165 5.9823914 14.587555l0 0c0 11.393593 -9.144669 20.629921 -20.425201 20.629921l0 0c-11.280518 0 -20.425186 -9.236328 -20.425186 -20.629921z" fill-rule="evenodd"/><defs><radialGradient id="p.3" gradientUnits="userSpaceOnUse" gradientTransform="matrix(7.619805023799611 0.0 0.0 7.619805023799611 0.0 0.0)" spreadMethod="pad" cx="19.28494313210189" cy="10.139976253122379" fx="19.28494313210189" fy="10.139976253122379" r="7.619804859161377"><stop offset="0.0" stop-color="#ff1515"/><stop offset="0.26" stop-color="#e71e1e"/><stop offset="1.0" stop-color="#c31b1b"/></radialGradient></defs><path fill="url(#p.3)" d="m146.94751 97.89456l0 0c0 -11.393593 9.144669 -20.629921 20.425186 -20.629921l0 0c5.417099 0 10.612335 2.1735077 14.44281 6.042366c3.8304596 3.8688583 5.9823914 9.116158 5.9823914 14.587555l0 0c0 11.393593 -9.144669 20.629921 -20.425201 20.629921l0 0c-11.280518 0 -20.425186 -9.236328 -20.425186 -20.629921z" fill-rule="evenodd"/><path stroke="#990000" stroke-width="2.0" stroke-linejoin="round" stroke-linecap="butt" d="m146.94751 97.89456l0 0c0 -11.393593 9.144669 -20.629921 20.425186 -20.629921l0 0c5.417099 0 10.612335 2.1735077 14.44281 6.042366c3.8304596 3.8688583 5.9823914 9.116158 5.9823914 14.587555l0 0c0 11.393593 -9.144669 20.629921 -20.425201 20.629921l0 0c-11.280518 0 -20.425186 -9.236328 -20.425186 -20.629921z" fill-rule="evenodd"/></g></svg>