<svg version="1.1" viewBox="0.0 0.0 96.0 480.0" fill="none" stroke="none" stroke-linecap="square" stroke-miterlimit="10" xmlns:xlink="http://www.w3.org/1999/xlink" xmlns="http://www.w3.org/2000/svg"><clipPath id="p.0"><path d="m0 0l96.0 0l0 480.0l-96.0 0l0 -480.0z" clip-rule="nonzero"/></clipPath><g clip-path="url(#p.0)"><path fill="#000000" fill-opacity="0.0" d="m0 0l96.0 0l0 480.0l-96.0 0z" fill-rule="evenodd"/><defs><radialGradient id="p.1" gradientUnits="userSpaceOnUse" gradientTransform="matrix(7.619805023799611 0.0 0.0 7.619805023799611 0.0 0.0)" spreadMethod="pad" cx="3.6188331674471295" cy="28.78940185296271" fx="3.6188331674471295" fy="28.78940185296271" r="7.619804859161377"><stop offset="0.0" stop-color="#ff1515"/><stop offset="0.26" stop-color="#e71e1e"/><stop offset="1.0" stop-color="#c31b1b"/></radialGradient></defs><path fill="url(#p.1)" d="m27.574802 239.99956l0 0c0 -11.3936 9.144672 -20.629929 20.425198 -20.629929l0 0c5.417099 0 10.612328 2.1735077 14.442795 6.0423584c3.8304672 3.868866 5.982399 9.116165 5.982399 14.58757l0 0c0 11.393585 -9.144669 20.629929 -20.425194 20.629929l0 0c-11.280525 0 -20.425198 -9.236343 -20.425198 -20.629929z" fill-rule="evenodd"/><path stroke="#990000" stroke-width="2.0" stroke-linejoin="round" stroke-linecap="butt" d="m27.574802 239.99956l0 0c0 -11.3936 9.144672 -20.629929 20.425198 -20.629929l0 0c5.417099 0 10.612328 2.1735077 14.442795 6.0423584c3.8304672 3.868866 5.982399 9.116165 5.982399 14.58757l0 0c0 11.393585 -9.144669 20.629929 -20.425194 20.629929l0 0c-11.280525 0 -20.425198 -9.236343 -20.425198 -20.629929z" fill-rule="evenodd"/><defs><radialGradient id="p.2" gradientUnits="userSpaceOnUse" gradientTransform="matrix(14.432496562306792 0.0 0.0 14.432496562306792 0.0 0.0)" spreadMethod="pad" cx="8.336967104888274" cy="-1.7411513876921623" fx="8.336967104888274" fy="-1.7411513876921623" r="14.432497024536133"><stop offset="0.0" stop-color="#4545de"/><stop offset="0.26" stop-color="#4f4fd9"/><stop offset="1.0" stop-color="#5a5ab5"/></radialGradient></defs><path fill="url(#p.2)" d="m120.32325 76.996826l0 0c0 -56.402626 9.144676 -102.12599 20.425194 -102.12599l0 0c5.417099 0 10.612335 10.759671 14.442795 29.912008c3.8304749 19.152338 5.9824066 45.12848 5.9824066 72.21398l0 0c0 56.40262 -9.144669 102.12598 -20.425201 102.12598l0 0c-5.417099 0 -10.61232 -10.759674 -14.442795 -29.912003c-3.8304672 -19.152344 -5.982399 -45.12848 -5.982399 -72.213974z" fill-rule="evenodd"/><path stroke="#4e4e89" stroke-width="2.0" stroke-linejoin="round" stroke-linecap="butt" d="m120.32325 76.996826l0 0c0 -56.402626 9.144676 -102.12599 20.425194 -102.12599l0 0c5.417099 0 10.612335 10.759671 14.442795 29.912008c3.8304749 19.152338 5.9824066 45.12848 5.9824066 72.21398l0 0c0 56.40262 -9.144669 102.12598 -20.425201 102.12598l0 0c-5.417099 0 -10.61232 -10.759674 -14.442795 -29.912003c-3.8304672 -19.152344 -5.982399 -45.12848 -5.982399 -72.213974z" fill-rule="evenodd"/><path fill="#ffff00" fill-opacity="0.7233" d="m-96.23622 193.79265l0 0c0 -96.67157 15.673561 -175.03937 35.007874 -175.03937l0 0c9.284668 0 18.189056 18.441597 24.754307 51.267845c6.5652504 32.82625 10.253569 77.3482 10.253569 123.77152l0 0c0 96.671585 -15.673559 175.03938 -35.007874 175.03938l0 0c-9.28466 0 -18.189056 -18.44162 -24.754303 -51.267853c-6.565254 -32.826263 -10.253571 -77.348206 -10.253571 -123.77153z" fill-rule="evenodd"/></g></svg>