<svg version="1.1" viewBox="0.0 0.0 96.0 480.0" fill="none" stroke="none" stroke-linecap="square" stroke-miterlimit="10" xmlns:xlink="http://www.w3.org/1999/xlink" xmlns="http://www.w3.org/2000/svg"><clipPath id="p.0"><path d="m0 0l96.0 0l0 480.0l-96.0 0l0 -480.0z" clip-rule="nonzero"/></clipPath><g clip-path="url(#p.0)"><path fill="#000000" fill-opacity="0.0" d="m0 0l96.0 0l0 480.0l-96.0 0z" fill-rule="evenodd"/><defs><radialGradient id="p.1" gradientUnits="userSpaceOnUse" gradientTransform="matrix(7.619805023799611 0.0 0.0 7.619805023799611 0.0 0.0)" spreadMethod="pad" cx="3.6188331674471295" cy="28.78940185296271" fx="3.6188331674471295" fy="28.78940185296271" r="7.619804859161377"><stop offset="0.0" stop-color="#ff1515"/><stop offset="0.26" stop-color="#e71e1e"/><stop offset="1.0" stop-color="#c31b1b"/></radialGradient></defs><path fill="url(#p.1)" d="m27.574802 239.99956l0 0c0 -11.3936 9.144672 -20.629929 20.425198 -20.629929l0 0c5.417099 0 10.612328 2.1735077 14.442795 6.0423584c3.8304672 3.868866 5.982399 9.116165 5.982399 14.58757l0 0c0 11.393585 -9.144669 20.629929 -20.425194 20.629929l0 0c-11.280525 0 -20.425198 -9.236343 -20.425198 -20.629929z" fill-rule="evenodd"/><path stroke="#990000" stroke-width="2.0" stroke-linejoin="round" stroke-linecap="butt" d="m27.574802 239.99956l0 0c0 -11.3936 9.144672 -20.629929 20.425198 -20.629929l0 0c5.417099 0 10.612328 2.1735077 14.442795 6.0423584c3.8304672 3.868866 5.982399 9.116165 5.982399 14.58757l0 0c0 11.393585 -9.144669 20.629929 -20.425194 20.629929l0 0c-11.280525 0 -20.425198 -9.236343 -20.425198 -20.629929z" fill-rule="evenodd"/><defs><radialGradient id="p.2" gradientUnits="userSpaceOnUse" gradientTransform="matrix(14.432496562306792 0.0 0.0 14.432496562306792 0.0 0.0)" spreadMethod="pad" cx="11.508760889110901" cy="21.837891951976943" fx="11.508760889110901" fy="21.837891951976943" r="14.432497024536133"><stop offset="0.0" stop-color="#4545de"/><stop offset="0.26" stop-color="#4f4fd9"/><stop offset="1.0" stop-color="#5a5ab5"/></radialGradient></defs><path fill="url(#p.2)" d="m166.10016 417.30127l0 0c0 -56.40262 9.144669 -102.12598 20.425186 -102.12598l0 0c5.417099 0 10.612335 10.759674 14.442795 29.912018c3.8304749 19.152344 5.9824066 45.12848 5.9824066 72.21396l0 0c0 56.40265 -9.144669 102.12598 -20.425201 102.12598l0 0c-5.417099 0 -10.61232 -10.759644 -14.442795 -29.911987c-3.8304596 -19.152344 -5.9823914 -45.12848 -5.9823914 -72.21399z" fill-rule="evenodd"/><path stroke="#4e4e89" stroke-width="2.0" stroke-linejoin="round" stroke-linecap="butt" d="m166.10016 417.30127l0 0c0 -56.40262 9.144669 -102.12598 20.425186 -102.12598l0 0c5.417099 0 10.612335 10.759674 14.442795 29.912018c3.8304749 19.152344 5.9824066 45.12848 5.9824066 72.21396l0 0c0 56.40265 -9.144669 102.12598 -20.425201 102.12598l0 0c-5.417099 0 -10.61232 -10.759644 -14.442795 -29.911987c-3.8304596 -19.152344 -5.9823914 -45.12848 -5.9823914 -72.21399z" fill-rule="evenodd"/><defs><radialGradient id="p.3" gradientUnits="userSpaceOnUse" gradientTransform="matrix(7.619805023799611 0.0 0.0 7.619805023799611 0.0 0.0)" spreadMethod="pad" cx="3.6188331674471295" cy="26.081993829344352" fx="3.6188331674471295" fy="26.081993829344352" r="7.619804859161377"><stop offset="0.0" stop-color="#ff1515"/><stop offset="0.26" stop-color="#e71e1e"/><stop offset="1.0" stop-color="#c31b1b"/></radialGradient></defs><path fill="url(#p.3)" d="m27.574802 219.36963l0 0c0 -11.393585 9.144672 -20.629929 20.425198 -20.629929l0 0c5.417099 0 10.612328 2.1735077 14.442795 6.0423737c3.8304672 3.868866 5.982399 9.116165 5.982399 14.587555l0 0c0 11.393585 -9.144669 20.629929 -20.425194 20.629929l0 0c-11.280525 0 -20.425198 -9.236343 -20.425198 -20.629929z" fill-rule="evenodd"/><path stroke="#990000" stroke-width="2.0" stroke-linejoin="round" stroke-linecap="butt" d="m27.574802 219.36963l0 0c0 -11.393585 9.144672 -20.629929 20.425198 -20.629929l0 0c5.417099 0 10.612328 2.1735077 14.442795 6.0423737c3.8304672 3.868866 5.982399 9.116165 5.982399 14.587555l0 0c0 11.393585 -9.144669 20.629929 -20.425194 20.629929l0 0c-11.280525 0 -20.425198 -9.236343 -20.425198 -20.629929z" fill-rule="evenodd"/><defs><radialGradient id="p.4" gradientUnits="userSpaceOnUse" gradientTransform="matrix(7.619805023799611 0.0 0.0 7.619805023799611 0.0 0.0)" spreadMethod="pad" cx="3.6188331674471295" cy="23.374585805725996" fx="3.6188331674471295" fy="23.374585805725996" r="7.619804859161377"><stop offset="0.0" stop-color="#ff1515"/><stop offset="0.26" stop-color="#e71e1e"/><stop offset="1.0" stop-color="#c31b1b"/></radialGradient></defs><path fill="url(#p.4)" d="m27.574802 198.7397l0 0c0 -11.393585 9.144672 -20.629913 20.425198 -20.629913l0 0c5.417099 0 10.612328 2.1735077 14.442795 6.0423584c3.8304672 3.868866 5.982399 9.116165 5.982399 14.587555l0 0c0 11.3936 -9.144669 20.629929 -20.425194 20.629929l0 0c-11.280525 0 -20.425198 -9.236328 -20.425198 -20.629929z" fill-rule="evenodd"/><path stroke="#990000" stroke-width="2.0" stroke-linejoin="round" stroke-linecap="butt" d="m27.574802 198.7397l0 0c0 -11.393585 9.144672 -20.629913 20.425198 -20.629913l0 0c5.417099 0 10.612328 2.1735077 14.442795 6.0423584c3.8304672 3.868866 5.982399 9.116165 5.982399 14.587555l0 0c0 11.3936 -9.144669 20.629929 -20.425194 20.629929l0 0c-11.280525 0 -20.425198 -9.236328 -20.425198 -20.629929z" fill-rule="evenodd"/><defs><radialGradient id="p.5" gradientUnits="userSpaceOnUse" gradientTransform="matrix(7.619805023799611 0.0 0.0 7.619805023799611 0.0 0.0)" spreadMethod="pad" cx="3.6188331674471295" cy="20.667177782107643" fx="3.6188331674471295" fy="20.667177782107643" r="7.619804859161377"><stop offset="0.0" stop-color="#ff1515"/><stop offset="0.26" stop-color="#e71e1e"/><stop offset="1.0" stop-color="#c31b1b"/></radialGradient></defs><path fill="url(#p.5)" d="m27.574802 178.10979l0 0c0 -11.393585 9.144672 -20.629929 20.425198 -20.629929l0 0c5.417099 0 10.612328 2.1735077 14.442795 6.0423737c3.8304672 3.8688507 5.982399 9.116165 5.982399 14.587555l0 0c0 11.393585 -9.144669 20.629913 -20.425194 20.629913l0 0c-11.280525 0 -20.425198 -9.236328 -20.425198 -20.629913z" fill-rule="evenodd"/><path stroke="#990000" stroke-width="2.0" stroke-linejoin="round" stroke-linecap="butt" d="m27.574802 178.10979l0 0c0 -11.393585 9.144672 -20.629929 20.425198 -20.629929l0 0c5.417099 0 10.612328 2.1735077 14.442795 6.0423737c3.8304672 3.8688507 5.982399 9.116165 5.982399 14.587555l0 0c0 11.393585 -9.144669 20.629913 -20.425194 20.629913l0 0c-11.280525 0 -20.425198 -9.236328 -20.425198 -20.629913z" fill-rule="evenodd"/><defs><radialGradient id="p.6" gradientUnits="userSpaceOnUse" gradientTransform="matrix(7.619805023799611 0.0 0.0 7.619805023799611 0.0 0.0)" spreadMethod="pad" cx="3.6188331674471295" cy="17.959769758489287" fx="3.6188331674471295" fy="17.959769758489287" r="7.619804859161377"><stop offset="0.0" stop-color="#ff1515"/><stop offset="0.26" stop-color="#e71e1e"/><stop offset="1.0" stop-color="#c31b1b"/></radialGradient></defs><path fill="url(#p.6)" d="m27.574802 157.47986l0 0c0 -11.393585 9.144672 -20.629913 20.425198 -20.629913l0 0c5.417099 0 10.612328 2.1735077 14.442795 6.0423584c3.8304672 3.868866 5.982399 9.116165 5.982399 14.587555l0 0c0 11.3936 -9.144669 20.629929 -20.425194 20.629929l0 0c-11.280525 0 -20.425198 -9.236328 -20.425198 -20.629929z" fill-rule="evenodd"/><path stroke="#990000" stroke-width="2.0" stroke-linejoin="round" stroke-linecap="butt" d="m27.574802 157.47986l0 0c0 -11.393585 9.144672 -20.629913 20.425198 -20.629913l0 0c5.417099 0 10.612328 2.1735077 14.442795 6.0423584c3.8304672 3.868866 5.982399 9.116165 5.982399 14.587555l0 0c0 11.3936 -9.144669 20.629929 -20.425194 20.629929l0 0c-11.280525 0 -20.425198 -9.236328 -20.425198 -20.629929z" fill-rule="evenodd"/></g></svg>