<svg version="1.1" viewBox="0.0 0.0 96.0 240.0" fill="none" stroke="none" stroke-linecap="square" stroke-miterlimit="10" xmlns:xlink="http://www.w3.org/1999/xlink" xmlns="http://www.w3.org/2000/svg"><clipPath id="p.0"><path d="m0 0l96.0 0l0 240.0l-96.0 0l0 -240.0z" clip-rule="nonzero"/></clipPath><g clip-path="url(#p.0)"><path fill="#000000" fill-opacity="0.0" d="m0 0l96.0 0l0 240.0l-96.0 0z" fill-rule="evenodd"/><defs><radialGradient id="p.1" gradientUnits="userSpaceOnUse" gradientTransform="matrix(7.619805023799611 0.0 0.0 -7.619805023799611 0.0 0.0)" spreadMethod="pad" cx="3.6188331674471295" cy="-27.904891617201198" fx="3.6188331674471295" fy="-27.904891617201198" r="7.619804859161377"><stop offset="0.0" stop-color="#ff1515"/><stop offset="0.26" stop-color="#e71e1e"/><stop offset="1.0" stop-color="#c31b1b"/></radialGradient></defs><path fill="url(#p.1)" d="m27.574802 191.99991l0 0c0 11.3936 9.144672 20.629929 20.425198 20.629929l0 0c5.417099 0 10.612328 -2.1735077 14.442795 -6.0423737c3.8304672 -3.8688507 5.982399 -9.11615 5.982399 -14.587555l0 0c0 -11.393585 -9.144669 -20.629913 -20.425194 -20.629913l0 0c-11.280525 0 -20.425198 9.236328 -20.425198 20.629913z" fill-rule="evenodd"/><path stroke="#990000" stroke-width="2.0" stroke-linejoin="round" stroke-linecap="butt" d="m27.574802 191.99991l0 0c0 11.3936 9.144672 20.629929 20.425198 20.629929l0 0c5.417099 0 10.612328 -2.1735077 14.442795 -6.0423737c3.8304672 -3.8688507 5.982399 -9.11615 5.982399 -14.587555l0 0c0 -11.393585 -9.144669 -20.629913 -20.425194 -20.629913l0 0c-11.280525 0 -20.425198 9.236328 -20.425198 20.629913z" fill-rule="evenodd"/><defs><radialGradient id="p.2" gradientUnits="userSpaceOnUse" gradientTransform="matrix(7.619805023799611 0.0 0.0 -7.619805023799611 0.0 0.0)" spreadMethod="pad" cx="3.6188331674471295" cy="-25.19748359358284" fx="3.6188331674471295" fy="-25.19748359358284" r="7.619804859161377"><stop offset="0.0" stop-color="#ff1515"/><stop offset="0.26" stop-color="#e71e1e"/><stop offset="1.0" stop-color="#c31b1b"/></radialGradient></defs><path fill="url(#p.2)" d="m27.574802 171.37l0 0c0 11.393585 9.144672 20.629913 20.425198 20.629913l0 0c5.417099 0 10.612328 -2.1734924 14.442795 -6.0423584c3.8304672 -3.868866 5.982399 -9.116165 5.982399 -14.587555l0 0c0 -11.3936 -9.144669 -20.629929 -20.425194 -20.629929l0 0c-11.280525 0 -20.425198 9.236328 -20.425198 20.629929z" fill-rule="evenodd"/><path stroke="#990000" stroke-width="2.0" stroke-linejoin="round" stroke-linecap="butt" d="m27.574802 171.37l0 0c0 11.393585 9.144672 20.629913 20.425198 20.629913l0 0c5.417099 0 10.612328 -2.1734924 14.442795 -6.0423584c3.8304672 -3.868866 5.982399 -9.116165 5.982399 -14.587555l0 0c0 -11.3936 -9.144669 -20.629929 -20.425194 -20.629929l0 0c-11.280525 0 -20.425198 9.236328 -20.425198 20.629929z" fill-rule="evenodd"/><defs><radialGradient id="p.3" gradientUnits="userSpaceOnUse" gradientTransform="matrix(7.619805023799611 0.0 0.0 -7.619805023799611 0.0 0.0)" spreadMethod="pad" cx="3.6188331674471295" cy="-22.49007556996449" fx="3.6188331674471295" fy="-22.49007556996449" r="7.619804859161377"><stop offset="0.0" stop-color="#ff1515"/><stop offset="0.26" stop-color="#e71e1e"/><stop offset="1.0" stop-color="#c31b1b"/></radialGradient></defs><path fill="url(#p.3)" d="m27.574802 150.74007l0 0c0 11.3936 9.144672 20.629929 20.425198 20.629929l0 0c5.417099 0 10.612328 -2.1735077 14.442795 -6.0423737c3.8304672 -3.8688507 5.982399 -9.11615 5.982399 -14.587555l0 0c0 -11.393585 -9.144669 -20.629913 -20.425194 -20.629913l0 0c-11.280525 0 -20.425198 9.236328 -20.425198 20.629913z" fill-rule="evenodd"/><path stroke="#990000" stroke-width="2.0" stroke-linejoin="round" stroke-linecap="butt" d="m27.574802 150.74007l0 0c0 11.3936 9.144672 20.629929 20.425198 20.629929l0 0c5.417099 0 10.612328 -2.1735077 14.442795 -6.0423737c3.8304672 -3.8688507 5.982399 -9.11615 5.982399 -14.587555l0 0c0 -11.393585 -9.144669 -20.629913 -20.425194 -20.629913l0 0c-11.280525 0 -20.425198 9.236328 -20.425198 20.629913z" fill-rule="evenodd"/><defs><radialGradient id="p.4" gradientUnits="userSpaceOnUse" gradientTransform="matrix(7.619805023799611 0.0 0.0 -7.619805023799611 0.0 0.0)" spreadMethod="pad" cx="3.6188331674471295" cy="-19.782667546346133" fx="3.6188331674471295" fy="-19.782667546346133" r="7.619804859161377"><stop offset="0.0" stop-color="#ff1515"/><stop offset="0.26" stop-color="#e71e1e"/><stop offset="1.0" stop-color="#c31b1b"/></radialGradient></defs><path fill="url(#p.4)" d="m27.574802 130.11015l0 0c0 11.393585 9.144672 20.629913 20.425198 20.629913l0 0c5.417099 0 10.612328 -2.1735077 14.442795 -6.0423584c3.8304672 -3.868866 5.982399 -9.116165 5.982399 -14.587555l0 0c0 -11.393593 -9.144669 -20.629929 -20.425194 -20.629929l0 0c-11.280525 0 -20.425198 9.236336 -20.425198 20.629929z" fill-rule="evenodd"/><path stroke="#990000" stroke-width="2.0" stroke-linejoin="round" stroke-linecap="butt" d="m27.574802 130.11015l0 0c0 11.393585 9.144672 20.629913 20.425198 20.629913l0 0c5.417099 0 10.612328 -2.1735077 14.442795 -6.0423584c3.8304672 -3.868866 5.982399 -9.116165 5.982399 -14.587555l0 0c0 -11.393593 -9.144669 -20.629929 -20.425194 -20.629929l0 0c-11.280525 0 -20.425198 9.236336 -20.425198 20.629929z" fill-rule="evenodd"/><defs><radialGradient id="p.5" gradientUnits="userSpaceOnUse" gradientTransform="matrix(7.619805023799611 0.0 0.0 -7.619805023799611 0.0 0.0)" spreadMethod="pad" cx="3.6188331674471295" cy="-17.075259522727777" fx="3.6188331674471295" fy="-17.075259522727777" r="7.619804859161377"><stop offset="0.0" stop-color="#ff1515"/><stop offset="0.26" stop-color="#e71e1e"/><stop offset="1.0" stop-color="#c31b1b"/></radialGradient></defs><path fill="url(#p.5)" d="m27.574802 109.480225l0 0c0 11.393593 9.144672 20.629929 20.425198 20.629929l0 0c5.417099 0 10.612328 -2.1735077 14.442795 -6.042366c3.8304672 -3.868866 5.982399 -9.116165 5.982399 -14.587563l0 0c0 -11.393585 -9.144669 -20.629921 -20.425194 -20.629921l0 0c-11.280525 0 -20.425198 9.236336 -20.425198 20.629921z" fill-rule="evenodd"/><path stroke="#990000" stroke-width="2.0" stroke-linejoin="round" stroke-linecap="butt" d="m27.574802 109.480225l0 0c0 11.393593 9.144672 20.629929 20.425198 20.629929l0 0c5.417099 0 10.612328 -2.1735077 14.442795 -6.042366c3.8304672 -3.868866 5.982399 -9.116165 5.982399 -14.587563l0 0c0 -11.393585 -9.144669 -20.629921 -20.425194 -20.629921l0 0c-11.280525 0 -20.425198 9.236336 -20.425198 20.629921z" fill-rule="evenodd"/></g></svg>