<svg version="1.1" viewBox="0.0 0.0 96.0 240.0" fill="none" stroke="none" stroke-linecap="square" stroke-miterlimit="10" xmlns:xlink="http://www.w3.org/1999/xlink" xmlns="http://www.w3.org/2000/svg"><clipPath id="well6Blue.0"><path d="m0 0l96.0 0l0 240.0l-96.0 0l0 -240.0z" clip-rule="nonzero"/></clipPath><g clip-path="url(#well6Blue.0)"><path fill="#000000" fill-opacity="0.0" d="m0 0l96.0 0l0 240.0l-96.0 0z" fill-rule="evenodd"/><defs><radialGradient id="well6Blue.1" gradientUnits="userSpaceOnUse" gradientTransform="matrix(7.619805023799611 0.0 0.0 7.619805023799611 0.0 0.0)" spreadMethod="pad" cx="3.6188331674471295" cy="3.5919542203719366" fx="3.6188331674471295" fy="3.5919542203719366" r="7.619804859161377"><stop offset="0.0" stop-color="#4545de"/><stop offset="0.26" stop-color="#4f4fd9"/><stop offset="1.0" stop-color="#5a5ab5"/></radialGradient></defs><path fill="url(#well6Blue.1)" d="m27.574802 47.999912l0 0c0 -11.393593 9.144672 -20.629921 20.425198 -20.629921l0 0c5.417099 0 10.612328 2.173502 14.442795 6.042362c3.8304672 3.8688622 5.982399 9.116165 5.982399 14.587559l0 0c0 11.393589 -9.144669 20.629925 -20.425194 20.629925l0 0c-11.280525 0 -20.425198 -9.236336 -20.425198 -20.629925z" fill-rule="evenodd"/><path stroke="#4e4e89" stroke-width="2.0" stroke-linejoin="round" stroke-linecap="butt" d="m27.574802 47.999912l0 0c0 -11.393593 9.144672 -20.629921 20.425198 -20.629921l0 0c5.417099 0 10.612328 2.173502 14.442795 6.042362c3.8304672 3.8688622 5.982399 9.116165 5.982399 14.587559l0 0c0 11.393589 -9.144669 20.629925 -20.425194 20.629925l0 0c-11.280525 0 -20.425198 -9.236336 -20.425198 -20.629925z" fill-rule="evenodd"/><defs><radialGradient id="well6Blue.2" gradientUnits="userSpaceOnUse" gradientTransform="matrix(7.619805023799611 0.0 0.0 7.619805023799611 0.0 0.0)" spreadMethod="pad" cx="3.6188331674471295" cy="6.299362243990291" fx="3.6188331674471295" fy="6.299362243990291" r="7.619804859161377"><stop offset="0.0" stop-color="#4545de"/><stop offset="0.26" stop-color="#4f4fd9"/><stop offset="1.0" stop-color="#5a5ab5"/></radialGradient></defs><path fill="url(#well6Blue.2)" d="m27.574802 68.62984l0 0c0 -11.393593 9.144672 -20.629925 20.425198 -20.629925l0 0c5.417099 0 10.612328 2.1735039 14.442795 6.042362c3.8304672 3.8688622 5.982399 9.116165 5.982399 14.587563l0 0c0 11.393585 -9.144669 20.629921 -20.425194 20.629921l0 0c-11.280525 0 -20.425198 -9.236336 -20.425198 -20.629921z" fill-rule="evenodd"/><path stroke="#4e4e89" stroke-width="2.0" stroke-linejoin="round" stroke-linecap="butt" d="m27.574802 68.62984l0 0c0 -11.393593 9.144672 -20.629925 20.425198 -20.629925l0 0c5.417099 0 10.612328 2.1735039 14.442795 6.042362c3.8304672 3.8688622 5.982399 9.116165 5.982399 14.587563l0 0c0 11.393585 -9.144669 20.629921 -20.425194 20.629921l0 0c-11.280525 0 -20.425198 -9.236336 -20.425198 -20.629921z" fill-rule="evenodd"/><defs><radialGradient id="well6Blue.3" gradientUnits="userSpaceOnUse" gradientTransform="matrix(7.619805023799611 0.0 0.0 7.619805023799611 0.0 0.0)" spreadMethod="pad" cx="3.6188331674471295" cy="9.006770267608646" fx="3.6188331674471295" fy="9.006770267608646" r="7.619804859161377"><stop offset="0.0" stop-color="#4545de"/><stop offset="0.26" stop-color="#4f4fd9"/><stop offset="1.0" stop-color="#5a5ab5"/></radialGradient></defs><path fill="url(#well6Blue.3)" d="m27.574802 89.25976l0 0c0 -11.393593 9.144672 -20.629921 20.425198 -20.629921l0 0c5.417099 0 10.612328 2.1735 14.442795 6.0423584c3.8304672 3.868866 5.982399 9.116165 5.982399 14.587563l0 0c0 11.393585 -9.144669 20.629921 -20.425194 20.629921l0 0c-11.280525 0 -20.425198 -9.236336 -20.425198 -20.629921z" fill-rule="evenodd"/><path stroke="#4e4e89" stroke-width="2.0" stroke-linejoin="round" stroke-linecap="butt" d="m27.574802 89.25976l0 0c0 -11.393593 9.144672 -20.629921 20.425198 -20.629921l0 0c5.417099 0 10.612328 2.1735 14.442795 6.0423584c3.8304672 3.868866 5.982399 9.116165 5.982399 14.587563l0 0c0 11.393585 -9.144669 20.629921 -20.425194 20.629921l0 0c-11.280525 0 -20.425198 -9.236336 -20.425198 -20.629921z" fill-rule="evenodd"/><defs><radialGradient id="well6Blue.4" gradientUnits="userSpaceOnUse" gradientTransform="matrix(7.619805023799611 0.0 0.0 7.619805023799611 0.0 0.0)" spreadMethod="pad" cx="3.6188331674471295" cy="11.714178291227004" fx="3.6188331674471295" fy="11.714178291227004" r="7.619804859161377"><stop offset="0.0" stop-color="#4545de"/><stop offset="0.26" stop-color="#4f4fd9"/><stop offset="1.0" stop-color="#5a5ab5"/></radialGradient></defs><path fill="url(#well6Blue.4)" d="m27.574802 109.88968l0 0c0 -11.393593 9.144672 -20.629921 20.425198 -20.629921l0 0c5.417099 0 10.612328 2.1735 14.442795 6.0423584c3.8304672 3.868866 5.982399 9.116165 5.982399 14.587563l0 0c0 11.393585 -9.144669 20.629913 -20.425194 20.629913l0 0c-11.280525 0 -20.425198 -9.236328 -20.425198 -20.629913z" fill-rule="evenodd"/><path stroke="#4e4e89" stroke-width="2.0" stroke-linejoin="round" stroke-linecap="butt" d="m27.574802 109.88968l0 0c0 -11.393593 9.144672 -20.629921 20.425198 -20.629921l0 0c5.417099 0 10.612328 2.1735 14.442795 6.0423584c3.8304672 3.868866 5.982399 9.116165 5.982399 14.587563l0 0c0 11.393585 -9.144669 20.629913 -20.425194 20.629913l0 0c-11.280525 0 -20.425198 -9.236328 -20.425198 -20.629913z" fill-rule="evenodd"/><defs><radialGradient id="well6Blue.5" gradientUnits="userSpaceOnUse" gradientTransform="matrix(7.619805023799611 0.0 0.0 7.619805023799611 0.0 0.0)" spreadMethod="pad" cx="3.6188331674471295" cy="14.421586314845358" fx="3.6188331674471295" fy="14.421586314845358" r="7.619804859161377"><stop offset="0.0" stop-color="#4545de"/><stop offset="0.26" stop-color="#4f4fd9"/><stop offset="1.0" stop-color="#5a5ab5"/></radialGradient></defs><path fill="url(#well6Blue.5)" d="m27.574802 130.51959l0 0c0 -11.393585 9.144672 -20.629913 20.425198 -20.629913l0 0c5.417099 0 10.612328 2.1735 14.442795 6.0423584c3.8304672 3.868866 5.982399 9.116165 5.982399 14.587555l0 0c0 11.3936 -9.144669 20.629929 -20.425194 20.629929l0 0c-11.280525 0 -20.425198 -9.236328 -20.425198 -20.629929z" fill-rule="evenodd"/><path stroke="#4e4e89" stroke-width="2.0" stroke-linejoin="round" stroke-linecap="butt" d="m27.574802 130.51959l0 0c0 -11.393585 9.144672 -20.629913 20.425198 -20.629913l0 0c5.417099 0 10.612328 2.1735 14.442795 6.0423584c3.8304672 3.868866 5.982399 9.116165 5.982399 14.587555l0 0c0 11.3936 -9.144669 20.629929 -20.425194 20.629929l0 0c-11.280525 0 -20.425198 -9.236328 -20.425198 -20.629929z" fill-rule="evenodd"/><defs><radialGradient id="well6Blue.6" gradientUnits="userSpaceOnUse" gradientTransform="matrix(7.619805023799611 0.0 0.0 7.619805023799611 0.0 0.0)" spreadMethod="pad" cx="3.6188331674471295" cy="17.128994338463713" fx="3.6188331674471295" fy="17.128994338463713" r="7.619804859161377"><stop offset="0.0" stop-color="#4545de"/><stop offset="0.26" stop-color="#4f4fd9"/><stop offset="1.0" stop-color="#5a5ab5"/></radialGradient></defs><path fill="url(#well6Blue.6)" d="m27.574802 151.14952l0 0c0 -11.3936 9.144672 -20.629929 20.425198 -20.629929l0 0c5.417099 0 10.612328 2.1735077 14.442795 6.0423737c3.8304672 3.8688507 5.982399 9.11615 5.982399 14.587555l0 0c0 11.393585 -9.144669 20.629913 -20.425194 20.629913l0 0c-11.280525 0 -20.425198 -9.236328 -20.425198 -20.629913z" fill-rule="evenodd"/><path stroke="#4e4e89" stroke-width="2.0" stroke-linejoin="round" stroke-linecap="butt" d="m27.574802 151.14952l0 0c0 -11.3936 9.144672 -20.629929 20.425198 -20.629929l0 0c5.417099 0 10.612328 2.1735077 14.442795 6.0423737c3.8304672 3.8688507 5.982399 9.11615 5.982399 14.587555l0 0c0 11.393585 -9.144669 20.629913 -20.425194 20.629913l0 0c-11.280525 0 -20.425198 -9.236328 -20.425198 -20.629913z" fill-rule="evenodd"/></g></svg>