<svg version="1.1" viewBox="0.0 0.0 96.0 480.0" fill="none" stroke="none" stroke-linecap="square" stroke-miterlimit="10" xmlns:xlink="http://www.w3.org/1999/xlink" xmlns="http://www.w3.org/2000/svg"><clipPath id="p.0"><path d="m0 0l96.0 0l0 480.0l-96.0 0l0 -480.0z" clip-rule="nonzero"/></clipPath><g clip-path="url(#p.0)"><path fill="#000000" fill-opacity="0.0" d="m0 0l96.0 0l0 480.0l-96.0 0z" fill-rule="evenodd"/><defs><radialGradient id="p.1" gradientUnits="userSpaceOnUse" gradientTransform="matrix(7.619805023799611 0.0 0.0 7.619805023799611 0.0 0.0)" spreadMethod="pad" cx="3.6188331674471295" cy="28.789449353162002" fx="3.6188331674471295" fy="28.789449353162002" r="7.619804859161377"><stop offset="0.0" stop-color="#4545de"/><stop offset="0.26" stop-color="#4f4fd9"/><stop offset="1.0" stop-color="#5a5ab5"/></radialGradient></defs><path fill="url(#p.1)" d="m27.574802 239.99991l0 0c0 -11.393585 9.144672 -20.629913 20.425198 -20.629913l0 0c5.417099 0 10.612328 2.1734924 14.442795 6.0423584c3.8304672 3.868866 5.982399 9.116165 5.982399 14.587555l0 0c0 11.3936 -9.144669 20.629913 -20.425194 20.629913l0 0c-11.280525 0 -20.425198 -9.236313 -20.425198 -20.629913z" fill-rule="evenodd"/><path stroke="#4e4e89" stroke-width="2.0" stroke-linejoin="round" stroke-linecap="butt" d="m27.574802 239.99991l0 0c0 -11.393585 9.144672 -20.629913 20.425198 -20.629913l0 0c5.417099 0 10.612328 2.1734924 14.442795 6.0423584c3.8304672 3.868866 5.982399 9.116165 5.982399 14.587555l0 0c0 11.3936 -9.144669 20.629913 -20.425194 20.629913l0 0c-11.280525 0 -20.425198 -9.236313 -20.425198 -20.629913z" fill-rule="evenodd"/><defs><radialGradient id="p.2" gradientUnits="userSpaceOnUse" gradientTransform="matrix(7.619805023799611 0.0 0.0 7.619805023799611 0.0 0.0)" spreadMethod="pad" cx="3.6188331674471295" cy="31.49685737678036" fx="3.6188331674471295" fy="31.49685737678036" r="7.619804859161377"><stop offset="0.0" stop-color="#4545de"/><stop offset="0.26" stop-color="#4f4fd9"/><stop offset="1.0" stop-color="#5a5ab5"/></radialGradient></defs><path fill="url(#p.2)" d="m27.574802 260.62982l0 0c0 -11.393585 9.144672 -20.629913 20.425198 -20.629913l0 0c5.417099 0 10.612328 2.1735077 14.442795 6.0423737c3.8304672 3.8688507 5.982399 9.11615 5.982399 14.58754l0 0c0 11.393616 -9.144669 20.629944 -20.425194 20.629944l0 0c-11.280525 0 -20.425198 -9.236328 -20.425198 -20.629944z" fill-rule="evenodd"/><path stroke="#4e4e89" stroke-width="2.0" stroke-linejoin="round" stroke-linecap="butt" d="m27.574802 260.62982l0 0c0 -11.393585 9.144672 -20.629913 20.425198 -20.629913l0 0c5.417099 0 10.612328 2.1735077 14.442795 6.0423737c3.8304672 3.8688507 5.982399 9.11615 5.982399 14.58754l0 0c0 11.393616 -9.144669 20.629944 -20.425194 20.629944l0 0c-11.280525 0 -20.425198 -9.236328 -20.425198 -20.629944z" fill-rule="evenodd"/><defs><radialGradient id="p.3" gradientUnits="userSpaceOnUse" gradientTransform="matrix(7.619805023799611 0.0 0.0 7.619805023799611 0.0 0.0)" spreadMethod="pad" cx="3.6188331674471295" cy="34.20426540039871" fx="3.6188331674471295" fy="34.20426540039871" r="7.619804859161377"><stop offset="0.0" stop-color="#4545de"/><stop offset="0.26" stop-color="#4f4fd9"/><stop offset="1.0" stop-color="#5a5ab5"/></radialGradient></defs><path fill="url(#p.3)" d="m27.574802 281.25977l0 0c0 -11.393616 9.144672 -20.629944 20.425198 -20.629944l0 0c5.417099 0 10.612328 2.173523 14.442795 6.042389c3.8304672 3.8688354 5.982399 9.11615 5.982399 14.587555l0 0c0 11.393585 -9.144669 20.629913 -20.425194 20.629913l0 0c-11.280525 0 -20.425198 -9.236328 -20.425198 -20.629913z" fill-rule="evenodd"/><path stroke="#4e4e89" stroke-width="2.0" stroke-linejoin="round" stroke-linecap="butt" d="m27.574802 281.25977l0 0c0 -11.393616 9.144672 -20.629944 20.425198 -20.629944l0 0c5.417099 0 10.612328 2.173523 14.442795 6.042389c3.8304672 3.8688354 5.982399 9.11615 5.982399 14.587555l0 0c0 11.393585 -9.144669 20.629913 -20.425194 20.629913l0 0c-11.280525 0 -20.425198 -9.236328 -20.425198 -20.629913z" fill-rule="evenodd"/><defs><radialGradient id="p.4" gradientUnits="userSpaceOnUse" gradientTransform="matrix(7.619805023799611 0.0 0.0 7.619805023799611 0.0 0.0)" spreadMethod="pad" cx="3.6188331674471295" cy="36.91167342401707" fx="3.6188331674471295" fy="36.91167342401707" r="7.619804859161377"><stop offset="0.0" stop-color="#4545de"/><stop offset="0.26" stop-color="#4f4fd9"/><stop offset="1.0" stop-color="#5a5ab5"/></radialGradient></defs><path fill="url(#p.4)" d="m27.574802 301.88968l0 0c0 -11.393585 9.144672 -20.629913 20.425198 -20.629913l0 0c5.417099 0 10.612328 2.1734924 14.442795 6.0423584c3.8304672 3.868866 5.982399 9.11615 5.982399 14.587555l0 0c0 11.393585 -9.144669 20.629913 -20.425194 20.629913l0 0c-11.280525 0 -20.425198 -9.236328 -20.425198 -20.629913z" fill-rule="evenodd"/><path stroke="#4e4e89" stroke-width="2.0" stroke-linejoin="round" stroke-linecap="butt" d="m27.574802 301.88968l0 0c0 -11.393585 9.144672 -20.629913 20.425198 -20.629913l0 0c5.417099 0 10.612328 2.1734924 14.442795 6.0423584c3.8304672 3.868866 5.982399 9.11615 5.982399 14.587555l0 0c0 11.393585 -9.144669 20.629913 -20.425194 20.629913l0 0c-11.280525 0 -20.425198 -9.236328 -20.425198 -20.629913z" fill-rule="evenodd"/><defs><radialGradient id="p.5" gradientUnits="userSpaceOnUse" gradientTransform="matrix(7.619805023799611 0.0 0.0 7.619805023799611 0.0 0.0)" spreadMethod="pad" cx="3.6188331674471295" cy="39.61908144763542" fx="3.6188331674471295" fy="39.61908144763542" r="7.619804859161377"><stop offset="0.0" stop-color="#4545de"/><stop offset="0.26" stop-color="#4f4fd9"/><stop offset="1.0" stop-color="#5a5ab5"/></radialGradient></defs><path fill="url(#p.5)" d="m27.574802 322.5196l0 0c0 -11.393585 9.144672 -20.629913 20.425198 -20.629913l0 0c5.417099 0 10.612328 2.1734924 14.442795 6.0423584c3.8304672 3.868866 5.982399 9.11615 5.982399 14.587555l0 0c0 11.393585 -9.144669 20.629913 -20.425194 20.629913l0 0c-11.280525 0 -20.425198 -9.236328 -20.425198 -20.629913z" fill-rule="evenodd"/><path stroke="#4e4e89" stroke-width="2.0" stroke-linejoin="round" stroke-linecap="butt" d="m27.574802 322.5196l0 0c0 -11.393585 9.144672 -20.629913 20.425198 -20.629913l0 0c5.417099 0 10.612328 2.1734924 14.442795 6.0423584c3.8304672 3.868866 5.982399 9.11615 5.982399 14.587555l0 0c0 11.393585 -9.144669 20.629913 -20.425194 20.629913l0 0c-11.280525 0 -20.425198 -9.236328 -20.425198 -20.629913z" fill-rule="evenodd"/><defs><radialGradient id="p.6" gradientUnits="userSpaceOnUse" gradientTransform="matrix(7.619805023799611 0.0 0.0 7.619805023799611 0.0 0.0)" spreadMethod="pad" cx="3.6188331674471295" cy="42.32648947125378" fx="3.6188331674471295" fy="42.32648947125378" r="7.619804859161377"><stop offset="0.0" stop-color="#4545de"/><stop offset="0.26" stop-color="#4f4fd9"/><stop offset="1.0" stop-color="#5a5ab5"/></radialGradient></defs><path fill="url(#p.6)" d="m27.574802 343.1495l0 0c0 -11.393585 9.144672 -20.629913 20.425198 -20.629913l0 0c5.417099 0 10.612328 2.173523 14.442795 6.0423584c3.8304672 3.868866 5.982399 9.11618 5.982399 14.587555l0 0c0 11.393616 -9.144669 20.629944 -20.425194 20.629944l0 0c-11.280525 0 -20.425198 -9.236328 -20.425198 -20.629944z" fill-rule="evenodd"/><path stroke="#4e4e89" stroke-width="2.0" stroke-linejoin="round" stroke-linecap="butt" d="m27.574802 343.1495l0 0c0 -11.393585 9.144672 -20.629913 20.425198 -20.629913l0 0c5.417099 0 10.612328 2.173523 14.442795 6.0423584c3.8304672 3.868866 5.982399 9.11618 5.982399 14.587555l0 0c0 11.393616 -9.144669 20.629944 -20.425194 20.629944l0 0c-11.280525 0 -20.425198 -9.236328 -20.425198 -20.629944z" fill-rule="evenodd"/></g></svg>